<?xml version="1.0" encoding="UTF-8" standalone="no"?>
<!-- Created with Inkscape (http://www.inkscape.org/) -->

<svg
   xmlns:dc="http://purl.org/dc/elements/1.1/"
   xmlns:cc="http://creativecommons.org/ns#"
   xmlns:rdf="http://www.w3.org/1999/02/22-rdf-syntax-ns#"
   xmlns:svg="http://www.w3.org/2000/svg"
   xmlns="http://www.w3.org/2000/svg"
   xmlns:xlink="http://www.w3.org/1999/xlink"
   xmlns:sodipodi="http://sodipodi.sourceforge.net/DTD/sodipodi-0.dtd"
   xmlns:inkscape="http://www.inkscape.org/namespaces/inkscape"
   width="9.9999997e-06"
   height="9.9999997e-06"
   viewBox="0 0 2.6458333e-06 2.6458334e-06"
   version="1.1"
   id="svg8"
   inkscape:version="0.92.5 (2060ec1f9f, 2020-04-08)"
   sodipodi:docname="customSvgV1.svg">
  <defs
     id="defs2">
    <linearGradient
       inkscape:collect="always"
       id="linearGradient6972">
      <stop
         style="stop-color:#5469c4;stop-opacity:1;"
         offset="0"
         id="stop6968" />
      <stop
         style="stop-color:#5469c4;stop-opacity:0;"
         offset="1"
         id="stop6970" />
    </linearGradient>
    <linearGradient
       inkscape:collect="always"
       id="linearGradient6872">
      <stop
         style="stop-color:#ededed;stop-opacity:1;"
         offset="0"
         id="stop6868" />
      <stop
         style="stop-color:#040091;stop-opacity:1"
         offset="1"
         id="stop6870" />
    </linearGradient>
    <linearGradient
       inkscape:collect="always"
       id="linearGradient4599">
      <stop
         style="stop-color:#000000;stop-opacity:1;"
         offset="0"
         id="stop4595" />
      <stop
         style="stop-color:#030091;stop-opacity:0.99502486"
         offset="1"
         id="stop4597" />
    </linearGradient>
    <linearGradient
       inkscape:collect="always"
       id="linearGradient4573">
      <stop
         style="stop-color:#525252;stop-opacity:1;"
         offset="0"
         id="stop4569" />
      <stop
         style="stop-color:#000992;stop-opacity:1"
         offset="1"
         id="stop4571" />
    </linearGradient>
    <inkscape:path-effect
       effect="bspline"
       id="path-effect4549"
       is_visible="true"
       weight="33.333333"
       steps="2"
       helper_size="0"
       apply_no_weight="true"
       apply_with_weight="true"
       only_selected="false" />
    <inkscape:path-effect
       effect="bspline"
       id="path-effect4545"
       is_visible="true"
       weight="33.333333"
       steps="2"
       helper_size="0"
       apply_no_weight="true"
       apply_with_weight="true"
       only_selected="false" />
    <inkscape:path-effect
       effect="bspline"
       id="path-effect4541"
       is_visible="true"
       weight="33.333333"
       steps="2"
       helper_size="0"
       apply_no_weight="true"
       apply_with_weight="true"
       only_selected="false" />
    <linearGradient
       inkscape:collect="always"
       xlink:href="#linearGradient4573"
       id="linearGradient4577"
       x1="65.470665"
       y1="136.75577"
       x2="167.19774"
       y2="182.19159"
       gradientUnits="userSpaceOnUse"
       gradientTransform="translate(154.48178,0.53453909)" />
    <linearGradient
       inkscape:collect="always"
       xlink:href="#linearGradient4599"
       id="linearGradient4601"
       x1="172.40042"
       y1="283.07236"
       x2="208.77086"
       y2="299.41983"
       gradientUnits="userSpaceOnUse"
       gradientTransform="translate(-1.0356694,3.3742778)" />
    <linearGradient
       inkscape:collect="always"
       xlink:href="#linearGradient4599"
       id="linearGradient4609"
       x1="186.90402"
       y1="274.65244"
       x2="192.83556"
       y2="278.57394"
       gradientUnits="userSpaceOnUse"
       gradientTransform="translate(-0.56794775,3.1070083)" />
    <linearGradient
       inkscape:collect="always"
       xlink:href="#linearGradient4599"
       id="linearGradient4659"
       x1="61.486092"
       y1="133.74548"
       x2="142.0313"
       y2="162.51738"
       gradientUnits="userSpaceOnUse" />
    <linearGradient
       inkscape:collect="always"
       xlink:href="#linearGradient4599"
       id="linearGradient4705"
       gradientUnits="userSpaceOnUse"
       x1="61.486092"
       y1="133.74548"
       x2="142.0313"
       y2="162.51738" />
    <clipPath
       clipPathUnits="userSpaceOnUse"
       id="clipPath2564">
      <path
   d="M 72.54,579.24 H 539.46 V 342.15 H 72.54 Z"
   id="path2566"
   inkscape:connector-curvature="0" />

    </clipPath>
    <linearGradient
       inkscape:collect="always"
       xlink:href="#linearGradient4573"
       id="linearGradient6626"
       gradientUnits="userSpaceOnUse"
       gradientTransform="translate(154.48178,0.53453909)"
       x1="65.470665"
       y1="136.75577"
       x2="167.19774"
       y2="182.19159" />
    <linearGradient
       inkscape:collect="always"
       xlink:href="#linearGradient4599"
       id="linearGradient6647"
       x1="186.15326"
       y1="137.116"
       x2="380.43304"
       y2="261.09219"
       gradientUnits="userSpaceOnUse" />
    <linearGradient
       inkscape:collect="always"
       xlink:href="#linearGradient4599"
       id="linearGradient6659"
       x1="200.35033"
       y1="135.3269"
       x2="356.62378"
       y2="246.4519"
       gradientUnits="userSpaceOnUse" />
    <clipPath
       id="clipPath18441"
       clipPathUnits="userSpaceOnUse">
      <path
         inkscape:connector-curvature="0"
         id="path18439"
         d="M 0,600 H 600 V 0 H 0 Z" />
    </clipPath>
    <linearGradient
       inkscape:collect="always"
       xlink:href="#linearGradient6872"
       id="linearGradient6874"
       x1="536.7262"
       y1="136.73802"
       x2="688.18799"
       y2="413.62769"
       gradientUnits="userSpaceOnUse"
       gradientTransform="translate(-279.43903,-120.85696)" />
    <linearGradient
       inkscape:collect="always"
       xlink:href="#linearGradient6972"
       id="linearGradient6974"
       x1="-22.851579"
       y1="197.23997"
       x2="403.54495"
       y2="192.37567"
       gradientUnits="userSpaceOnUse" />
  </defs>
  <sodipodi:namedview
     id="base"
     pagecolor="#ffffff"
     bordercolor="#666666"
     borderopacity="1.0"
     inkscape:pageopacity="0.0"
     inkscape:pageshadow="2"
     inkscape:zoom="0.5"
     inkscape:cx="952.4773"
     inkscape:cy="407.56169"
     inkscape:document-units="px"
     inkscape:current-layer="layer1"
     showgrid="false"
     inkscape:window-width="1920"
     inkscape:window-height="1001"
     inkscape:window-x="-9"
     inkscape:window-y="-9"
     inkscape:window-maximized="1"
     units="px"
     width="1920mm"
     inkscape:pagecheckerboard="false"
     showborder="false" />
  <metadata
     id="metadata5">
    <rdf:RDF>
      <cc:Work
         rdf:about="">
        <dc:format>image/svg+xml</dc:format>
        <dc:type
           rdf:resource="http://purl.org/dc/dcmitype/StillImage" />
        <dc:title></dc:title>
      </cc:Work>
    </rdf:RDF>
  </metadata>
  <g
     inkscape:label="Layer 1"
     inkscape:groupmode="layer"
     id="layer1"
     transform="translate(0,-296.99993)">
    <text
       xml:space="preserve"
       style="font-style:normal;font-variant:normal;font-weight:normal;font-stretch:normal;font-size:7.05555534px;line-height:1.25;font-family:'Franklin Gothic Heavy';-inkscape-font-specification:'Franklin Gothic Heavy, ';letter-spacing:0px;word-spacing:0px;fill:url(#linearGradient6974);fill-opacity:1;stroke:none;stroke-width:0.26458335"
       x="-23.27877"
       y="96.109192"
       id="text6942"><tspan
         sodipodi:role="line"
         id="tspan6940"
         x="-23.27877"
         y="96.109192"
         style="font-size:14.11111164px;fill:url(#linearGradient6974);fill-opacity:1;stroke-width:0.26458335">01100111011010110100111101100001011011110011</tspan><tspan
         sodipodi:role="line"
         x="-23.27877"
         y="113.74809"
         style="font-size:14.11111164px;fill:url(#linearGradient6974);fill-opacity:1;stroke-width:0.26458335"
         id="tspan6944">1110010110110101010110111101000101011001</tspan><tspan
         sodipodi:role="line"
         x="-23.27877"
         y="131.38698"
         style="font-size:14.11111164px;fill:url(#linearGradient6974);fill-opacity:1;stroke-width:0.26458335"
         id="tspan6946">0000101101011000001111010101000011010</tspan><tspan
         sodipodi:role="line"
         x="-23.27877"
         y="149.02586"
         style="font-size:14.11111164px;fill:url(#linearGradient6974);fill-opacity:1;stroke-width:0.26458335"
         id="tspan6948">1001010101101010110110101010100001</tspan><tspan
         sodipodi:role="line"
         x="-23.27877"
         y="166.66475"
         style="font-size:14.11111164px;fill:url(#linearGradient6974);fill-opacity:1;stroke-width:0.26458335"
         id="tspan6950">0101101011011010001011101101010</tspan><tspan
         sodipodi:role="line"
         x="-23.27877"
         y="184.30363"
         style="font-size:14.11111164px;fill:url(#linearGradient6974);fill-opacity:1;stroke-width:0.26458335"
         id="tspan6952">1010101010110101101011011011010110101011</tspan><tspan
         sodipodi:role="line"
         x="-23.27877"
         y="201.94254"
         style="font-size:14.11111164px;fill:url(#linearGradient6974);fill-opacity:1;stroke-width:0.26458335"
         id="tspan6954">0001101010000001111110101</tspan><tspan
         sodipodi:role="line"
         x="-23.27877"
         y="219.58142"
         style="font-size:14.11111164px;fill:url(#linearGradient6974);fill-opacity:1;stroke-width:0.26458335"
         id="tspan6956">0101101101101010100000</tspan><tspan
         sodipodi:role="line"
         x="-23.27877"
         y="237.22031"
         style="font-size:14.11111164px;fill:url(#linearGradient6974);fill-opacity:1;stroke-width:0.26458335"
         id="tspan6958">1010011011011000111</tspan><tspan
         sodipodi:role="line"
         x="-23.27877"
         y="254.85919"
         style="font-size:14.11111164px;fill:url(#linearGradient6974);fill-opacity:1;stroke-width:0.26458335"
         id="tspan6960">0000110101101101010101101100110</tspan><tspan
         sodipodi:role="line"
         x="-23.27877"
         y="272.49808"
         style="font-size:14.11111164px;fill:url(#linearGradient6974);fill-opacity:1;stroke-width:0.26458335"
         id="tspan6962">0101011011010010110101101011100110101011010</tspan><tspan
         sodipodi:role="line"
         x="-23.27877"
         y="290.13696"
         style="font-size:14.11111164px;fill:url(#linearGradient6974);fill-opacity:1;stroke-width:0.26458335"
         id="tspan6964">1010101010</tspan><tspan
         sodipodi:role="line"
         x="-23.27877"
         y="307.77588"
         style="font-size:14.11111164px;fill:url(#linearGradient6974);fill-opacity:1;stroke-width:0.26458335"
         id="tspan6966">011011100010101010101101110111011101101010110110101011010</tspan></text>
    <rect
       style="opacity:0.71;fill:url(#linearGradient6874);fill-opacity:1;fill-rule:nonzero;stroke:#000000;stroke-width:2.11666679;stroke-miterlimit:4;stroke-dasharray:none;stroke-opacity:1"
       id="rect6836"
       width="568.80969"
       height="298.54041"
       x="-25.439041"
       y="15.503082" />
    <text
       xml:space="preserve"
       style="font-style:normal;font-weight:normal;font-size:1.41111112px;line-height:1.25;font-family:sans-serif;letter-spacing:0px;word-spacing:0px;fill:#000000;fill-opacity:1;stroke:none;stroke-width:0.26458332"
       x="191.16452"
       y="290.8194"
       id="text4613"><tspan
         sodipodi:role="line"
         id="tspan4611"
         x="191.16452"
         y="292.10681"
         style="font-size:1.41111112px;stroke-width:0.26458332" /></text>
    <g
       id="g4623"
       transform="translate(154.48178,0.53453909)">
      <path
         inkscape:connector-curvature="0"
         d="m 178.16172,287.76199 c 0.0933,-0.10832 0.18077,-0.22132 0.26269,-0.33846 0.0543,-0.0816 0.12022,-0.15208 0.18697,-0.22314 0.0693,-0.0626 0.1297,-0.13367 0.19828,-0.19696 0.0576,-0.0619 0.12411,-0.11591 0.17418,-0.18436 0.0408,-0.0556 0.0943,-0.1007 0.1462,-0.14571 0.0547,-0.0423 0.0929,-0.0986 0.1372,-0.15052 0.0552,-0.0582 0.0938,-0.12793 0.14065,-0.19219 0.0544,-0.0671 0.0865,-0.14711 0.12324,-0.22416 0.043,-0.0721 0.0504,-0.15486 0.0693,-0.23447 0.0205,-0.0879 0.0524,-0.17214 0.0837,-0.25659 0.0361,-0.10721 0.05,-0.22014 0.0685,-0.33134 0.0331,-0.16521 0.0669,-0.33055 0.10728,-0.49414 0.0377,-0.13195 0.0562,-0.26749 0.0663,-0.40396 0.0142,-0.11883 0.0552,-0.23191 0.0784,-0.34912 0.0264,-0.0831 0.0488,-0.16621 0.0598,-0.25278 0.008,-0.0876 0.005,-0.17487 0.0219,-0.26144 0.0224,-0.12845 0.0786,-0.14126 0.22404,-0.20222 0.005,-0.003 0.0698,0.0222 0.0713,0.0228 0.13297,0.0707 0.25112,0.16394 0.37512,0.2485 0.16366,0.11962 0.34609,0.2077 0.53099,0.28879 0.22357,0.10361 0.45369,0.19294 0.6874,0.27075 0.21118,0.0666 0.42712,0.11113 0.64682,0.13655 0.16432,0.0159 0.32958,0.0164 0.49451,0.0167 0.12097,-1.3e-4 0.24194,0 0.3629,-0.003 0.0975,0.007 0.19227,-0.0159 0.28805,-0.03 0.0955,-0.0227 0.18045,-0.0722 0.27088,-0.1084 0.0531,-0.0351 0.22608,-0.10077 -0.0394,0.0259 -0.0129,0.006 0.0227,-0.0175 0.0341,-0.0262 0.0443,-0.0338 0.0236,-0.0193 0.0704,-0.049 0.0566,-0.045 0.11714,-0.0895 0.16643,-0.14288 0.0503,-0.072 0.27326,-0.27299 0.2488,-0.0874 -0.0546,0.1537 -0.0984,0.31083 -0.14912,0.46577 -0.0707,0.2146 -0.16107,0.42169 -0.24701,0.6304 -0.0877,0.23698 -0.19472,0.46601 -0.29973,0.69564 -0.11384,0.23524 -0.22831,0.4694 -0.32531,0.71221 -0.0825,0.21087 -0.17421,0.4179 -0.26034,0.6273 -0.0517,0.15816 -0.10501,0.31437 -0.17162,0.46693 -0.0391,0.0983 -0.0702,0.19974 -0.10153,0.30075 -0.0167,0.0702 -0.045,0.15053 0.007,0.21075 0.0983,0.0703 0.22433,0.0729 0.34047,0.0808 0.22727,0.0156 0.45236,-0.0214 0.67503,-0.0619 0.2388,-0.0432 0.47174,-0.10938 0.70443,-0.17703 0.3041,-0.0841 0.60486,-0.17918 0.89915,-0.293 0.30811,-0.12502 0.60906,-0.26736 0.8979,-0.43209 -0.004,0 -0.0141,1.8e-4 -0.0111,-0.003 0.0221,-0.0172 0.26026,-0.18084 0.28396,-0.19756 0.14216,-0.10039 0.27554,-0.2091 0.40952,-0.32002 0.2463,-0.22153 0.48269,-0.45415 0.71532,-0.68998 0.18732,-0.20457 0.36482,-0.4169 0.51888,-0.6477 0.15273,-0.21135 0.26173,-0.45003 0.37777,-0.68257 0.10319,-0.1933 0.19458,-0.38973 0.27092,-0.59497 0.0629,-0.1597 0.13221,-0.31655 0.18154,-0.48114 0.0469,-0.15531 0.098,-0.30941 0.15063,-0.46287 0.0543,-0.14062 0.0958,-0.2826 0.11822,-0.43169 0.0239,-0.12031 0.0465,-0.24061 0.0583,-0.36277 0.0183,-0.0959 0.037,-0.1914 0.0468,-0.28866 0.006,-0.0712 -0.006,-0.16179 0.15855,-0.0806 0.0262,0.013 -0.012,0.0573 -0.018,0.0859 -0.007,0.0351 -0.0146,0.0703 -0.0218,0.10541 -0.0498,0.29594 -0.0778,0.59484 -0.12111,0.89181 -0.0653,0.40415 -0.1311,0.80822 -0.1939,1.21277 -0.0776,0.49332 -0.13294,0.98978 -0.21755,1.48196 -0.0964,0.53885 -0.17437,1.08048 -0.23385,1.62459 -0.0527,0.62945 -0.0795,1.26066 -0.13917,1.88958 -0.0549,0.60835 -0.134,1.21409 -0.20728,1.82041 -0.0622,0.56322 -0.12453,1.1266 -0.19995,1.68823 -0.0806,0.55895 -0.17855,1.1154 -0.30062,1.66679 -0.0562,0.22617 -0.10918,0.45276 -0.1598,0.68014 -0.0261,0.11078 -0.0453,0.23003 -0.12809,0.31345 -0.0651,0.0358 -0.12686,0.0786 -0.19535,0.10737 -0.0381,0.0161 -0.26885,-0.0608 -0.31574,-0.0767 -0.13396,-0.0509 -0.26913,-0.0954 -0.40101,-0.15171 -0.12423,-0.052 -0.24362,-0.11105 -0.36244,-0.1741 -0.0947,-0.047 -0.1724,-0.1189 -0.26056,-0.17539 -0.0871,-0.0602 -0.16296,-0.13504 -0.23827,-0.20931 -0.0826,-0.0763 -0.15588,-0.16026 -0.22648,-0.24763 -0.0739,-0.1071 -0.12989,-0.22579 -0.18865,-0.34165 -0.0803,-0.15013 -0.14142,-0.30893 -0.20036,-0.46829 -0.0647,-0.14959 -0.0907,-0.30959 -0.10802,-0.47037 -0.0128,-0.13486 -0.0122,-0.27049 -0.0123,-0.40582 1e-4,-0.12139 2.6e-4,-0.24278 5.3e-4,-0.36417 -0.001,-0.1155 -0.005,-0.22937 0.0187,-0.34283 0.0438,-0.16629 0.13618,-0.30879 0.24054,-0.44283 0.15465,-0.19783 0.32016,-0.3851 0.49672,-0.56343 0.23559,-0.23474 0.49797,-0.43741 0.77467,-0.62074 0.34894,-0.23238 0.70211,-0.45828 1.05228,-0.68881 0.37494,-0.26284 0.74652,-0.53063 1.12865,-0.78301 0.34526,-0.22387 0.68951,-0.44913 1.04079,-0.66347 0.30584,-0.18997 0.60813,-0.38574 0.90199,-0.59381 0.27607,-0.19917 0.52185,-0.43529 0.77988,-0.65632 0.26883,-0.22183 0.49778,-0.48612 0.74257,-0.73311 0.2283,-0.23257 0.44686,-0.47527 0.64658,-0.73289 0.17349,-0.24432 0.34848,-0.48858 0.49701,-0.74912 0.13108,-0.24191 0.2221,-0.50194 0.33164,-0.75358 0.12452,-0.27287 0.21913,-0.55801 0.32007,-0.84008 0.0923,-0.25043 0.19167,-0.49835 0.27541,-0.75182 0.0851,-0.26889 0.14842,-0.54361 0.20528,-0.81962 0.0632,-0.2857 0.11894,-0.57314 0.16785,-0.86165 0.0449,-0.27289 0.0571,-0.54922 0.0643,-0.8252 0.004,-0.22326 0.003,-0.44659 0.003,-0.66988 0.009,-0.20412 -0.0109,-0.40605 -0.0422,-0.60732 -0.0256,-0.16452 -0.0396,-0.33002 -0.0762,-0.49265 -0.0392,-0.13394 -0.0822,-0.26525 -0.13779,-0.39323 -0.0407,-0.0854 -0.0844,-0.15393 -0.17503,-0.18748 -0.0979,-0.0236 -0.19845,-0.0262 -0.29532,0 -0.0701,0.0206 -0.13944,0.0428 -0.20521,0.0752 -0.0189,0.009 -0.0743,0.0397 -0.0557,0.0298 0.0325,-0.0175 0.0651,-0.0348 0.0976,-0.0522 -0.1969,0.11594 -0.34305,0.28988 -0.48893,0.46167 -0.21471,0.25106 -0.39143,0.53036 -0.56518,0.81034 -0.19376,0.30411 -0.34841,0.6286 -0.48588,0.96118 -0.14313,0.35935 -0.25926,0.72797 -0.3627,1.10043 -0.18998,0.66728 -0.33101,1.34702 -0.44922,2.03022 -0.0978,0.57013 -0.16198,1.14525 -0.21988,1.72056 -0.0586,0.68858 -0.0586,1.38076 -0.0638,2.07135 0.004,0.56874 -0.004,1.13707 -0.0213,1.70553 -0.0232,0.39952 -0.0479,0.79883 -0.0609,1.19885 -0.008,0.28474 -0.009,0.56959 -0.01,0.85445 2.7e-4,0.20547 2.7e-4,0.41092 0.001,0.6164 -0.002,0.0665 0.005,0.13316 -0.004,0.19939 -0.002,0.0145 0.003,0.039 -0.0115,0.0427 -0.0594,0.0154 -0.12024,0.0246 -0.18036,0.0368 -0.0164,-0.12406 -0.0211,-0.25003 -0.012,-0.37481 0.007,-0.15787 0.0514,-0.30588 0.10541,-0.45291 0.0805,-0.196 0.17801,-0.38597 0.28319,-0.56997 0.11637,-0.18973 0.26324,-0.35663 0.41673,-0.51665 0.15694,-0.1883 0.36009,-0.32427 0.5607,-0.46077 0.2903,-0.19008 0.59609,-0.3534 0.91844,-0.48083 0.19478,-0.079 0.3971,-0.13904 0.60238,-0.18375 0.15646,-0.03 0.316,-0.035 0.47482,-0.0378 0.13245,0 0.26449,-0.008 0.39547,0.0143 0.0741,0.0228 0.13987,0.0606 0.18598,0.12346 0.048,0.0807 0.0282,0.16184 -0.008,0.2427 -0.0446,0.0906 -0.11001,0.16169 -0.17907,0.23344 -0.059,0.0823 -0.56519,0.34499 -0.2194,0.1564 -0.15556,0.11443 -0.32779,0.16885 -0.50933,0.21902 -0.2142,0.0606 -0.4327,0.10192 -0.65345,0.1293 -0.25149,0.0188 -0.50255,0.0429 -0.75425,0.0592 -0.23278,0.0217 -0.46567,0.003 -0.69823,-0.0108 -0.18985,-0.0103 -0.37968,-0.009 -0.56865,-0.0312 -0.0638,-0.008 -0.0653,-0.0106 -0.12554,-0.01 -0.0128,2.6e-4 -0.0494,0.009 -0.0382,0.003 0.0552,-0.0292 0.11053,-0.0643 0.17228,-0.0735 0.0248,-0.004 0.0427,0.0265 0.0649,0.038 0.041,0.0212 0.0831,0.0401 0.12461,0.0601 0.53785,0.24675 1.09507,0.44087 1.66068,0.61235 0.49544,0.13986 1.00069,0.24379 1.51048,0.3144 0.26714,0.0428 0.53585,0.0728 0.80593,0.0878 0.0859,0.003 0.0819,0.004 0.16579,0.006 0.0189,0 0.0709,-0.0119 0.0568,0 -0.15636,0.141 -0.20277,0.10123 -0.37786,0.0813 -0.73209,-0.0779 -1.46655,-0.12581 -2.2017,-0.1624 -0.9,-0.0393 -1.80095,-0.0464 -2.70167,-0.0507 -0.8672,-0.0164 -1.73343,0.0304 -2.59997,0.0554 -1.09116,0.0297 -2.18031,0.10038 -3.26976,0.16483 -1.24917,0.0716 -2.4991,0.13198 -3.74926,0.18378 -1.23713,0.0495 -2.4751,0.0605 -3.71302,0.0509 -0.99689,-0.003 -1.99289,-0.037 -2.98792,-0.0951 -0.54233,-0.0257 -1.08376,-0.0663 -1.62575,-0.0979 -0.22744,-0.0132 -0.45518,-0.0198 -0.68297,-0.0214 0.0785,-0.0344 0.15131,-0.0867 0.23534,-0.10335 0.0595,-0.0119 0.12054,0.0138 0.18082,0.0206 0.09,0.0101 0.17989,0.0214 0.27001,0.0304 0.18131,0.0183 0.36258,0.0371 0.54426,0.0512 0.89561,0.0693 1.06415,0.0637 2.06522,0.10133 2.65714,0.0594 5.31551,0.022 7.97152,-0.0666 0.80532,-0.0268 1.61069,-0.0539 2.41552,-0.0926 0.86603,-0.0416 1.73123,-0.099 2.59684,-0.14843 2.67578,-0.18013 5.34193,-0.48062 7.99921,-0.83862 1.45792,-0.1964 2.66126,-0.37611 4.09617,-0.63249 0.51376,-0.0918 1.02491,-0.19762 1.53736,-0.29641 1.35072,-0.28808 2.68987,-0.64424 3.97892,-1.14369 0.46121,-0.1787 0.56458,-0.23339 0.99,-0.42918 0.36845,-0.17767 0.71033,-0.41095 0.9767,-0.72356 0.10135,-0.13163 0.15164,-0.28268 0.1673,-0.44579 0.005,-0.0953 -0.0486,-0.15635 -0.11738,-0.21323 -0.13998,-0.10388 -0.30216,-0.17037 -0.46111,-0.23913 -0.157,-0.0819 -0.31774,-0.14759 -0.48745,-0.19709 -0.14169,-0.0371 -0.28091,-0.083 -0.4207,-0.12666 -0.12597,-0.0414 -0.25593,-0.0653 -0.38781,-0.0761 -0.14466,-0.008 -0.28962,-0.007 -0.43445,-0.007 -0.22666,-0.003 -0.45126,0.0415 -0.67321,0.0831 -0.37081,0.0719 -0.73771,0.16044 -1.10375,0.25307 -0.46513,0.1523 -0.93692,0.27877 -1.41181,0.39627 -0.61001,0.13896 -1.21527,0.29694 -1.81843,0.46289 -0.78709,0.22579 -1.57576,0.44587 -2.36672,0.65775 -0.98279,0.24826 -1.97255,0.46712 -2.96587,0.66863 -1.27473,0.26395 -2.57595,0.32575 -3.873,0.3711 -1.41692,0.0454 -2.83532,-0.0138 -4.24947,-0.10191 -1.3164,-0.0944 -2.62819,-0.23363 -3.93423,-0.42249 -0.98773,-0.15928 -1.97216,-0.33909 -2.95416,-0.53036 -0.8044,-0.16237 -1.59038,-0.39724 -2.3564,-0.68955 -0.40232,-0.16465 -0.79502,-0.35508 -1.16117,-0.59021 -0.21079,-0.13533 -0.26966,-0.18328 -0.46846,-0.32935 -0.32493,-0.25109 -0.63863,-0.52234 -0.87481,-0.86048 0,0 0.1571,-0.0925 0.1571,-0.0925 v 0 c 0.2331,0.33742 0.54452,0.60804 0.86702,0.8583 0.19787,0.14595 0.25644,0.19389 0.46649,0.32886 0.36494,0.2345 0.75653,0.42404 1.15723,0.58896 0.76431,0.29204 1.54852,0.52779 2.35137,0.68942 0.98029,0.19153 1.96292,0.37203 2.94868,0.53322 1.30435,0.19047 2.61472,0.33012 3.9297,0.4241 1.41383,0.0877 2.83184,0.14703 4.24842,0.10078 1.29848,-0.046 2.60099,-0.11152 3.87675,-0.37722 0.9944,-0.20283 1.98535,-0.42262 2.96913,-0.67238 0.79215,-0.2127 1.58189,-0.43395 2.37016,-0.66056 0.60412,-0.16666 1.21062,-0.3243 1.82146,-0.46464 0.47543,-0.11811 0.94724,-0.24685 1.41349,-0.39769 0.36705,-0.0933 0.73523,-0.18151 1.10704,-0.25414 0.22343,-0.0417 0.44926,-0.0857 0.67749,-0.082 0.14537,-2.1e-4 0.29093,0 0.43611,0.007 0.13252,0.0122 0.26282,0.0381 0.38942,0.0798 0.13989,0.043 0.27892,0.0891 0.42046,0.12647 0.17,0.0499 0.32996,0.11885 0.4877,0.19968 0.16058,0.07 0.32494,0.13682 0.46648,0.24199 0.0725,0.061 0.12799,0.12906 0.12556,0.22934 -0.0147,0.16661 -0.0638,0.32163 -0.16549,0.45736 -0.33999,0.40529 -0.81111,0.66238 -1.2768,0.8995 -0.42257,0.19251 -0.52341,0.24551 -0.98151,0.42085 -1.28093,0.4903 -2.61087,0.83868 -3.9519,1.12011 -0.50856,0.0957 -1.01588,0.19826 -1.52566,0.28724 -1.43369,0.25019 -2.61593,0.42216 -4.07329,0.61491 -1.65856,0.2194 -3.61805,0.45379 -5.27532,0.61159 -0.90642,0.0863 -1.81484,0.15012 -2.72226,0.22518 -0.86785,0.0511 -1.73525,0.11039 -2.60354,0.15317 -0.80559,0.0397 -1.61179,0.066 -2.41786,0.0942 -2.66928,0.0933 -5.3406,0.1375 -8.01143,0.0947 -0.41794,-0.0122 -0.83605,-0.0193 -1.25382,-0.0362 -0.45555,-0.0183 -0.93416,-0.0523 -1.39127,-0.0923 -0.0912,-0.008 -0.1821,-0.019 -0.2732,-0.0281 -0.0613,-0.006 -0.14282,0.0284 -0.18392,-0.0175 -0.0293,-0.0327 0.0441,-0.076 0.0662,-0.11393 0.2264,0.005 0.45282,0.0106 0.67883,0.0254 0.53938,0.0342 1.07829,0.0757 1.61809,0.1034 0.99242,0.0607 1.98596,0.097 2.9804,0.0995 1.23734,0.01 2.47475,0 3.71129,-0.0506 1.25047,-0.0522 2.50075,-0.11234 3.75019,-0.18484 1.09098,-0.0655 2.18167,-0.13732 3.27441,-0.16761 0.86732,-0.0269 1.73442,-0.0732 2.60246,-0.0565 0.90028,0.005 1.80072,0.0138 2.70029,0.0527 0.73917,0.037 1.47768,0.0849 2.21459,0.15443 0.0425,0.004 0.085,0.009 0.12748,0.013 0.0281,0.003 0.0951,-0.018 0.0843,0.008 -0.0663,0.16007 -0.23256,0.10705 -0.35602,0.10512 -0.2692,-0.0167 -0.53699,-0.0481 -0.80324,-0.0915 -0.50862,-0.0731 -1.01262,-0.17904 -1.50681,-0.32028 -0.56754,-0.17314 -1.12714,-0.36766 -1.66956,-0.6096 -0.0426,-0.0201 -0.0862,-0.0382 -0.12785,-0.0602 -0.025,-0.0132 -0.0822,-0.019 -0.0718,-0.0453 0.0646,-0.1633 0.18302,-0.13584 0.3055,-0.12044 0.1883,0.0214 0.37765,0.0201 0.56673,0.0312 0.23199,0.013 0.4643,0.0313 0.69647,0.01 0.25152,-0.0164 0.50251,-0.0402 0.75373,-0.0602 0.22072,-0.0284 0.43916,-0.071 0.6532,-0.13256 0.10999,-0.0315 0.0452,-0.0122 0.14898,-0.0452 0.0201,-0.006 0.0404,-0.0122 0.0604,-0.019 0.0162,-0.006 0.0614,-0.0286 0.048,-0.018 -0.0347,0.0275 -0.076,0.0456 -0.11318,0.0697 -0.0142,0.009 0.0295,-0.0167 0.0443,-0.0249 0.0662,-0.04 0.13336,-0.0785 0.19859,-0.12004 0.0384,-0.0243 -0.079,0.0453 -0.11801,0.0687 -0.0125,0.007 0.0262,-0.013 0.0384,-0.0209 0.0235,-0.0156 0.0459,-0.0326 0.068,-0.0501 0.012,-0.01 0.0226,-0.0204 0.0339,-0.0306 0.0672,-0.072 0.13697,-0.13791 0.18125,-0.228 0.0373,-0.0729 0.0607,-0.14896 0.0167,-0.22452 -0.0438,-0.0585 -0.10752,-0.0928 -0.17755,-0.11171 -0.13003,-0.0204 -0.26138,-0.0122 -0.3926,-0.0122 -0.15803,0.003 -0.3168,0.009 -0.47221,0.0404 -0.20412,0.0456 -0.40527,0.1058 -0.59903,0.18491 -0.23619,0.0943 -0.45005,0.19595 -0.60415,0.30081 -0.19984,0.13605 -0.40492,0.26897 -0.56121,0.45688 -0.15341,0.15899 -0.30067,0.32419 -0.41806,0.51234 -0.10599,0.18259 -0.20254,0.37222 -0.28399,0.56687 -0.0536,0.14557 -0.10018,0.29139 -0.10673,0.44789 -0.0101,0.12276 -0.005,0.24685 0.0104,0.36904 -0.0534,0.0401 -0.1084,0.078 -0.16007,0.12028 -0.003,0.003 0.009,0.004 0.0112,0.003 0.006,-0.008 0.007,-0.0193 0.009,-0.0293 0.0125,-0.0656 0.004,-0.13208 0.007,-0.1983 2.6e-4,-0.20572 -2.4e-4,-0.41143 5.2e-4,-0.61717 8e-4,-0.28535 0.002,-0.57076 0.0115,-0.85601 0.0135,-0.40045 0.0386,-0.8002 0.0634,-1.2001 0.0191,-0.56903 0.0283,-1.13799 0.026,-1.7074 0.006,-0.69028 0.006,-1.38229 0.0591,-2.07077 0.0591,-0.57642 0.12391,-1.15273 0.22358,-1.72378 0.11912,-0.68197 0.25982,-1.36081 0.44236,-2.02883 0.10268,-0.3729 0.21834,-0.74192 0.36061,-1.10188 0.13691,-0.33356 0.29128,-0.65884 0.4848,-0.96393 0.17334,-0.2802 0.3487,-0.56031 0.5625,-0.81211 0.14503,-0.17185 0.28838,-0.34851 0.48415,-0.46556 0.15727,-0.094 0.30472,-0.19207 0.48456,-0.23366 0.0998,-0.0225 0.20383,-0.0198 0.30265,0.008 0.0924,0.0394 0.13999,0.11097 0.18183,0.20045 0.0557,0.1292 0.0992,0.26154 0.13894,0.39653 0.0373,0.16304 0.0508,0.32912 0.0759,0.49422 0.0315,0.20217 0.0522,0.40486 0.0432,0.60997 5.3e-4,0.2236 5.3e-4,0.44725 -0.004,0.67085 -0.007,0.27683 -0.0193,0.55404 -0.0638,0.82786 -0.0485,0.28871 -0.10424,0.57634 -0.16747,0.86217 -0.0563,0.27657 -0.11981,0.5516 -0.20386,0.82129 -0.0829,0.25395 -0.18271,0.50199 -0.27555,0.7524 -0.10158,0.28223 -0.1958,0.56787 -0.31984,0.84132 -0.10971,0.25196 -0.20046,0.51239 -0.33054,0.7552 -0.14768,0.26175 -0.32378,0.50599 -0.4964,0.75168 -0.19902,0.25895 -0.41854,0.50181 -0.64665,0.73538 -0.24558,0.24635 -0.47334,0.51189 -0.74174,0.73435 -0.25871,0.22074 -0.50411,0.45763 -0.77966,0.65802 -0.29374,0.20892 -0.59633,0.40492 -0.90237,0.59531 -0.35186,0.21403 -0.69637,0.43948 -1.04206,0.66326 -0.38253,0.25162 -0.75422,0.51914 -1.1284,0.78293 -0.3497,0.2305 -0.70261,0.45601 -1.0511,0.68834 -0.27654,0.18177 -0.53858,0.38293 -0.77405,0.61643 -0.17612,0.1778 -0.34241,0.36316 -0.4962,0.56094 -0.10442,0.13115 -0.19649,0.27117 -0.24238,0.43439 -0.0247,0.11216 -0.0217,0.22461 -0.02,0.33909 -2.6e-4,0.1215 -0.001,0.243 -0.001,0.36449 2e-4,0.13481 -2.7e-4,0.26982 0.0112,0.40423 0.0161,0.15949 0.0414,0.31811 0.10572,0.46636 0.058,0.15893 0.11893,0.3171 0.19925,0.46638 0.0587,0.11443 0.11459,0.23167 0.18742,0.33784 0.0706,0.0864 0.14349,0.16992 0.22542,0.24586 0.0746,0.0734 0.15016,0.14679 0.23686,0.20581 0.0867,0.0577 0.165,0.12732 0.25884,0.17455 0.11818,0.0634 0.23812,0.1202 0.36162,0.17269 0.13131,0.0564 0.26649,0.1 0.40005,0.15058 0.0826,0.0273 0.17353,0.0613 0.26094,0.0681 0.016,0 0.0595,-0.014 0.0481,-0.003 -0.035,0.0348 -0.0834,0.0528 -0.12512,0.0792 0.0904,-0.0744 0.10765,-0.19521 0.13433,-0.30382 0.0527,-0.22805 0.10485,-0.45601 0.1646,-0.68244 0.12636,-0.55084 0.22713,-1.10726 0.30475,-1.66704 0.0749,-0.56168 0.13762,-1.12492 0.20013,-1.68809 0.0738,-0.60632 0.15357,-1.21203 0.20843,-1.82047 0.0607,-0.62875 0.0869,-1.25986 0.13818,-1.88933 0.0585,-0.5442 0.1357,-1.08598 0.23183,-1.62486 0.0851,-0.49162 0.14069,-0.98761 0.2159,-1.4808 0.0625,-0.40436 0.12834,-0.80819 0.19313,-1.21221 0.0426,-0.2967 0.0696,-0.59526 0.11745,-0.89117 0.007,-0.035 0.0142,-0.07 0.0211,-0.10499 0.006,-0.0288 -0.003,-0.0645 0.0165,-0.0864 0.23268,-0.26279 0.18593,-0.18889 0.1768,-0.0829 -0.009,0.0974 -0.0263,0.19317 -0.047,0.28874 -0.0114,0.12269 -0.0336,0.24355 -0.0589,0.36409 -0.0217,0.15023 -0.0608,0.29366 -0.11686,0.43485 -0.0529,0.15316 -0.10393,0.3071 -0.15101,0.46217 -0.0486,0.16534 -0.11732,0.32279 -0.18149,0.48255 -0.0773,0.20576 -0.1663,0.40399 -0.27153,0.59732 -0.1159,0.23315 -0.22475,0.47278 -0.37721,0.68479 -0.15309,0.23263 -0.33111,0.44548 -0.51842,0.65136 -0.23259,0.23643 -0.46982,0.46871 -0.71517,0.69188 -0.31219,0.25921 -0.6387,0.50115 -0.99216,0.70202 -0.28968,0.16327 -0.59063,0.30557 -0.89917,0.42963 -0.29531,0.11298 -0.59669,0.20812 -0.90131,0.29276 -0.23304,0.068 -0.46672,0.13309 -0.70601,0.17582 -0.2241,0.04 -0.45057,0.0756 -0.67907,0.0592 -0.12095,-0.009 -0.25156,-0.0135 -0.35067,-0.0921 -0.0547,-0.0682 -0.0355,-0.14787 -0.0155,-0.2273 0.0305,-0.10213 0.0645,-0.20349 0.1018,-0.30329 0.0671,-0.15256 0.12317,-0.30795 0.17293,-0.4671 0.0865,-0.20947 0.17844,-0.41667 0.26148,-0.62757 0.0964,-0.24341 0.21062,-0.47802 0.32529,-0.71323 0.10499,-0.22926 0.21173,-0.45805 0.2994,-0.69469 0.0852,-0.20841 0.1763,-0.41466 0.24671,-0.62881 0.051,-0.15359 0.0918,-0.31044 0.14745,-0.46252 0.0284,-0.0973 -0.0411,-0.0217 0.15384,-0.13811 0.0532,-0.0317 -0.10474,0.0893 -0.0613,0.0706 -0.0457,0.058 -0.11099,0.0984 -0.16452,0.14857 -0.0378,0.022 -0.0682,0.0519 -0.10464,0.0746 -0.0923,0.0577 -0.18332,0.11224 -0.28152,0.15745 -0.0902,0.0378 -0.17672,0.0864 -0.27383,0.10502 -0.0961,0.0148 -0.19161,0.0346 -0.28951,0.0276 -0.12072,0 -0.24144,0 -0.36216,0 -0.16515,0 -0.33067,-0.003 -0.4951,-0.0188 -0.21996,-0.0272 -0.43633,-0.0729 -0.64766,-0.14055 -0.23394,-0.0789 -0.46486,-0.16766 -0.68884,-0.27178 -0.18589,-0.0817 -0.36926,-0.17087 -0.53398,-0.29093 -0.12272,-0.084 -0.23977,-0.17733 -0.37396,-0.24302 -0.0119,-0.004 -0.0236,-0.008 -0.0358,-0.0108 -0.01,-0.003 -0.0365,0.004 -0.029,-0.003 0.041,-0.0341 0.09,-0.0574 0.13494,-0.086 -0.007,0.006 -0.0155,0.0114 -0.0206,0.0193 -0.0131,0.0204 -0.0167,0.0496 -0.0213,0.0724 -0.0183,0.0861 -0.0164,0.17253 -0.0227,0.26016 -0.01,0.0871 -0.0298,0.17153 -0.0596,0.25416 -0.0223,0.117 -0.0631,0.22937 -0.0796,0.34727 -0.01,0.1375 -0.0275,0.27432 -0.0656,0.40722 -0.0422,0.16258 -0.0738,0.328 -0.10764,0.49249 -0.0174,0.11216 -0.0321,0.22567 -0.0663,0.3342 -0.0301,0.0843 -0.0639,0.16711 -0.084,0.25469 -0.0219,0.0796 -0.0238,0.16512 -0.0678,0.23807 -0.0392,0.0764 -0.0669,0.15952 -0.12176,0.22743 -0.0497,0.0623 -0.0839,0.13555 -0.14001,0.19326 -0.0458,0.0514 -0.0815,0.1098 -0.13589,0.15319 -0.0531,0.0424 -0.10425,0.0896 -0.14836,0.14105 -0.0467,0.0723 -0.11614,0.12451 -0.17297,0.18849 -0.0693,0.0625 -0.12849,0.13396 -0.1988,0.19539 -0.0651,0.0723 -0.1351,0.13886 -0.18862,0.22109 -0.0811,0.11784 -0.16915,0.23032 -0.2613,0.33964 0,0 -0.17215,0.0732 -0.17215,0.0732 z"
         id="path4557"
         style="fill:none;fill-opacity:1;stroke:url(#linearGradient4601);stroke-width:1.5;stroke-miterlimit:4;stroke-dasharray:none" />
      <path
         inkscape:connector-curvature="0"
         d="m 188.20725,279.29293 c -0.18918,-0.12716 -0.35384,-0.28538 -0.52031,-0.44003 -0.13674,-0.12065 -0.26361,-0.25366 -0.37401,-0.39894 -0.0949,-0.1103 -0.14287,-0.24286 -0.18506,-0.37939 -0.0509,-0.14747 -0.0557,-0.29413 -0.0228,-0.44526 0.0667,-0.24218 0.24226,-0.42315 0.42508,-0.58508 0.35788,-0.29651 0.78264,-0.4791 1.21499,-0.63563 0.53645,-0.16074 1.09128,-0.2445 1.6493,-0.27638 0.39188,-0.0225 0.78218,0.0151 1.16384,0.10284 0.27718,0.0792 0.52939,0.22693 0.76625,0.3883 0.15597,0.11171 0.27716,0.25733 0.37366,0.42164 0.0799,0.13994 0.11591,0.29125 0.13616,0.44942 0.0228,0.17645 -0.002,0.32568 -0.0702,0.48832 -0.0731,0.17896 -0.20614,0.31702 -0.33251,0.45878 -0.12536,0.12968 -0.28008,0.22382 -0.43181,0.3188 -0.18278,0.10636 -0.36639,0.21228 -0.55589,0.30636 -0.10148,0.0406 -0.19914,0.0903 -0.30232,0.12653 -0.0833,0.0225 -0.16987,0.0387 -0.24866,0.0749 -0.0951,0.0429 -0.1941,0.0704 -0.29682,0.088 -0.0723,0.0204 -0.14578,0.0342 -0.21997,0.0455 0,0 0.14909,-0.11192 0.14909,-0.11192 v 0 c 0.074,-0.0119 0.14709,-0.0276 0.21983,-0.0458 0.10208,-0.0191 0.20011,-0.049 0.29491,-0.0918 0.0809,-0.0312 0.16555,-0.0502 0.2488,-0.0737 0.10201,-0.038 0.20023,-0.0855 0.30049,-0.12787 0.0853,-0.0432 0.16933,-0.0887 0.25312,-0.1347 0.0239,-0.0132 0.0935,-0.0556 0.0718,-0.039 -0.0266,0.0204 -0.058,0.0338 -0.087,0.0506 0.15138,-0.0948 0.30659,-0.18703 0.43398,-0.31401 0.12516,-0.14113 0.2609,-0.27572 0.33465,-0.45325 0.0727,-0.16532 0.095,-0.29869 0.0743,-0.47935 -0.0194,-0.15584 -0.0543,-0.30475 -0.13244,-0.44291 -0.0949,-0.16198 -0.2146,-0.30517 -0.36784,-0.41564 -0.2352,-0.15996 -0.4853,-0.30662 -0.761,-0.38362 -0.37979,-0.0864 -0.76806,-0.12329 -1.15779,-0.10091 -0.55754,0.0327 -1.11247,0.11594 -1.64725,0.28133 -0.32069,0.11719 -0.64305,0.22993 -0.90528,0.45683 -0.18184,0.15809 -0.35727,0.3352 -0.42652,0.57309 -0.0348,0.14817 -0.0314,0.2912 0.0188,0.43643 0.0417,0.13457 0.0877,0.26522 0.1817,0.37383 0.10925,0.14467 0.23524,0.27697 0.37081,0.39714 0.16601,0.15449 0.32992,0.31335 0.5215,0.43646 0,0 -0.15767,0.10025 -0.15767,0.10025 z"
         id="path4559"
         style="fill:#4d4d4d;stroke:url(#linearGradient4609);stroke-width:1.5;stroke-miterlimit:4;stroke-dasharray:none" />
      <text
         transform="scale(0.83096253,1.2034237)"
         id="text4617"
         y="243.28738"
         x="206.76498"
         style="font-style:normal;font-weight:normal;font-size:1.1725806px;line-height:1.25;font-family:sans-serif;letter-spacing:0px;word-spacing:0px;fill:#000000;fill-opacity:1;stroke:none;stroke-width:0.21985883"
         xml:space="preserve"><tspan
           style="font-style:normal;font-variant:normal;font-weight:normal;font-stretch:normal;font-family:'Copperplate Gothic Bold';-inkscape-font-specification:'Copperplate Gothic Bold, ';stroke-width:0.21985883"
           y="243.28738"
           x="206.76498"
           id="tspan4615"
           sodipodi:role="line">Roald Jurrian Kamman</tspan></text>
    </g>
    <g
       id="g6802">
      <path
         d="m 254,136.36006 c 1.85721,2.82372 -2.89003,3.89661 -4.6932,3.08681 -4.88649,-2.1945 -4.35534,-8.92419 -1.48042,-12.47321 5.14255,-6.34837 14.85786,-5.21048 20.25323,0.12597 7.91791,7.83147 6.10929,20.87865 -1.73237,28.03324 -10.45171,9.53595 -26.93122,7.02782 -35.81325,-3.33876 -11.17712,-13.04528 -7.95676,-32.99916 4.94515,-43.59326 15.62595,-12.83087 39.0758,-8.891778 51.37327,6.55154 14.49215,18.19942 9.83062,45.15787 -8.15793,59.15329 -20.76849,16.15826 -51.24356,10.77199 -66.9333,-9.76433 -17.82767,-23.33468 -11.71515,-57.33179 11.37072,-74.713307 25.89887,-19.499433 63.42188,-12.659611 82.49332,12.977107 21.17291,28.46163 13.60503,69.51336 -14.5835,90.27333"
         sodipodi:t0="0"
         sodipodi:argument="-17.860542"
         sodipodi:radius="67.408112"
         sodipodi:revolution="3"
         sodipodi:expansion="1"
         sodipodi:cy="136.36006"
         sodipodi:cx="254"
         id="path6651"
         style="fill:none;fill-rule:evenodd;stroke:url(#linearGradient6659);stroke-width:2.11666673;stroke-miterlimit:4;stroke-dasharray:none"
         sodipodi:type="spiral" />
      <ellipse
         ry="64.633934"
         rx="68.413696"
         cy="137.116"
         cx="255.88988"
         id="path6639"
         style="opacity:1;fill:#2eaf2e;fill-opacity:0;fill-rule:nonzero;stroke:url(#linearGradient6647);stroke-width:2.64583342;stroke-miterlimit:4;stroke-dasharray:none;stroke-opacity:1" />
    </g>
    <g
       id="g5059">
      <rect
         ry="10.258368"
         style="fill:url(#linearGradient6626);fill-opacity:1;stroke:#000000;stroke-width:2;stroke-miterlimit:4;stroke-dasharray:none"
         y="127.03194"
         x="220.95245"
         height="20.516737"
         width="69.258354"
         id="rect16" />
      <text
         transform="scale(0.72960741,1.3706001)"
         id="text5054"
         y="103.5032"
         x="312.79498"
         style="font-style:normal;font-variant:normal;font-weight:normal;font-stretch:normal;font-size:12.14897442px;line-height:1.25;font-family:'Franklin Gothic Heavy';-inkscape-font-specification:'Franklin Gothic Heavy, ';letter-spacing:0px;word-spacing:0px;fill:#000000;fill-opacity:1;stroke:#000000;stroke-width:1;stroke-miterlimit:4;stroke-dasharray:none;stroke-opacity:1"
         xml:space="preserve"><tspan
           style="fill:#ffffff;stroke:#000000;stroke-width:1;stroke-miterlimit:4;stroke-dasharray:none;stroke-opacity:1"
           y="103.5032"
           x="312.79498"
           id="tspan5052"
           sodipodi:role="line">Enter Project</tspan></text>
    </g>
    <text
       xml:space="preserve"
       style="font-style:normal;font-variant:normal;font-weight:normal;font-stretch:normal;font-size:1.41111112px;line-height:1.25;font-family:'Franklin Gothic Heavy';-inkscape-font-specification:'Franklin Gothic Heavy, ';letter-spacing:0px;word-spacing:0px;fill:#000000;fill-opacity:1;stroke:none;stroke-width:0.26458335"
       x="318.60202"
       y="72.994652"
       id="text5063"><tspan
         sodipodi:role="line"
         id="tspan5061"
         x="318.60202"
         y="74.281044"
         style="font-size:1.41111112px;stroke-width:0.26458335" /></text>
    <g
       id="g5145">
      <g
         id="g5005" />
      <g
         id="g6798">
        <g
           id="g6930">
          <g
             style=""
             transform="matrix(0.0613439,0,0,-0.04595803,308.58765,100.07161)"
             inkscape:label="System Description and Engineering"
             id="g2452">
    <g
   transform="matrix(5.1753,0,0,5.1753,-300.09,-2357.1)"
   style="fill:#ffffff;stroke:#000000"
   id="g2399">
      <g
   clip-path="url(#clipPath2564)"
   style="fill:#ffffff;stroke:#000000"
   id="g2401">
        <path
   d="m 137.86,534.92 h 2.1 l 10.081,-22.441 H 72.818 l 7.02,22.441 h 2.1 m 9.24,0 h 37.442 m 0.0137,-27.237 h -55.816 v 4.7959 h 77.223 v -4.7959 h -21.481"
   style="fill:#ffffff;stroke:#000000;stroke-width:0.60000002;stroke-linecap:round;stroke-linejoin:round;stroke-miterlimit:10"
   sodipodi:nodetypes="cccccccccccccc"
   id="path2403"
   inkscape:connector-curvature="0" />

      </g>

    </g>

    <g
   clip-path="url(#clipPath2564)"
   transform="matrix(5.1753,0,0,5.1753,-300.09,-2357.1)"
   style="stroke:#000000"
   id="g3179">
      <path
   d="m 134.54,523.67 2.19,-5.6705 m 13.321,-5.52 H 72.828 m 11.1,16.861 -3.54,-11.341 h 61.082 l -5.1,11.341 z m -0.9,-2.82 h 54.602 m -55.502,-2.821 h 56.822 m -57.662,-2.82 h 58.922 m -55.142,-2.88 2.88,11.341 m 8.101,0 -1.561,-11.341 m 5.581,11.341 -0.675,-8.5058 m 4.695,8.5058 -0.18,-8.5058 m 4.2,8.5058 0.36,-8.5058 m 3.72,8.5058 0.81,-8.5058 m 3.21,8.5058 1.305,-8.5058 m 2.716,8.5058 1.845,-8.5058 m 2.175,8.5058 3.12,-11.341 m 4.98,11.341 1.095,-2.8352 m -5.115,2.8352 3.72,-11.341 m -40.082,11.341 -2.22,-11.341 m -16.92,-10.316 v 4.7959 h 77.223 v -4.7959"
   style="fill:none;stroke:#000000;stroke-width:0.60000002;stroke-linecap:round;stroke-linejoin:round;stroke-miterlimit:10"
   sodipodi:nodetypes="ccccccccccccccccccccccccccccccccccccccccccc"
   id="path3181"
   inkscape:connector-curvature="0" />

    </g>

    <g
   transform="matrix(5.1753,0,0,5.1753,-300.09,-2357.1)"
   style="fill:#ffffff;stroke:#000000"
   id="g3434">
      <g
   clip-path="url(#clipPath2564)"
   style="fill:#ffffff;stroke:#000000"
   id="g3436">
        <path
   d="M 137.86,535.46 H 79.845 v 42.542 h 60.122 V 535.46 h -2.1"
   style="fill:#ffffff;stroke:#000000;stroke-width:0.60000002;stroke-linecap:round;stroke-linejoin:round;stroke-miterlimit:10"
   sodipodi:nodetypes="cccccc"
   id="path3438"
   inkscape:connector-curvature="0" />

      </g>

    </g>

    <g
   transform="matrix(5.1753,0,0,5.1753,-300.09,-2357.1)"
   style="fill:#7f7f7f;stroke:#000000"
   id="g3465">
      <g
   clip-path="url(#clipPath2564)"
   style="fill:#7f7f7f;stroke:#000000"
   id="g3467">
        <path
   d="m 85.303,574.28 h 49.502 V 539.179 H 85.303 Z"
   style="fill:#7f7f7f;stroke:#000000;stroke-width:0.60000002;stroke-linecap:round;stroke-linejoin:round;stroke-miterlimit:10"
   sodipodi:nodetypes="ccccc"
   id="path3469"
   inkscape:connector-curvature="0" />

        <path
   d="m 85.303,574.28 h 49.502 V 539.179 H 85.303 Z"
   style="fill:#7f7f7f;stroke:#000000;stroke-width:0.60000002;stroke-linecap:round;stroke-linejoin:round;stroke-miterlimit:10"
   sodipodi:nodetypes="ccccc"
   id="path3471"
   inkscape:connector-curvature="0" />

      </g>

    </g>

    <path
   d="M 141.38,433.26 H 397.57"
   style="fill:#e3e3e3;fill-rule:evenodd;stroke:#000000;stroke-width:5.17530012"
   id="path2558"
   inkscape:connector-curvature="0" />

    <g
   transform="matrix(5.1753,0,0,5.1753,-300.09,-2357.1)"
   style="stroke:#000000"
   id="g3459">
      <g
   clip-path="url(#clipPath2564)"
   style="stroke:#000000"
   id="g3461">
        <path
   d="m 137.86,536.18 h -9.2404 v -1.9801 h 9.2404 z"
   style="fill:none;stroke:#000000;stroke-width:0.60000002;stroke-linecap:round;stroke-linejoin:round;stroke-miterlimit:10"
   sodipodi:nodetypes="ccccc"
   id="path3463"
   inkscape:connector-curvature="0" />

      </g>

    </g>

    <g
   transform="matrix(5.1753,0,0,5.1753,-300.09,-2357.1)"
   style="stroke:#000000"
   id="g3453">
      <g
   clip-path="url(#clipPath2564)"
   style="stroke:#000000"
   id="g3455">
        <path
   d="m 81.943,536.18 h 9.2404 v -1.9801 H 81.943 Z"
   style="fill:none;stroke:#000000;stroke-width:0.60000002;stroke-linecap:round;stroke-linejoin:round;stroke-miterlimit:10"
   sodipodi:nodetypes="ccccc"
   id="path3457"
   inkscape:connector-curvature="0" />

      </g>

    </g>

  </g>
          <g
             style=""
             transform="matrix(0.02053869,0,0,0.02258911,182.12352,72.846444)"
             id="layer1-2">
            <g
               id="g3935">
              <g
                 id="g3931"
                 style="fill:none;stroke:#000000">
                <path
                   d="m 63.592,-327 h 722.38 V 656.61 H 63.592 Z"
                   id="rect2816"
                   inkscape:connector-curvature="0"
                   style="stroke-width:21.71500015" />
                <path
                   d="m 130.25,-228.31 h 586.42 z m 0,69.295 h 586.42 z m 0,61.295 h 586.42 z m 0,69.35 h 586.42 z m 0,69.295 h 586.42 z m 0,61.295 h 586.42 z m 0,61.295 h 586.42 z m 0,69.295 h 586.42 z m 0,61.351 h 586.42 z m 0,69.295 h 586.42 z m 0,69.295 h 586.42 z m 0,61.295 h 586.42 z"
                   id="path3592"
                   inkscape:connector-curvature="0"
                   style="stroke-width:9.35709953" />
              </g>
              <g
                 transform="matrix(0.98891,-0.14852,0.14852,0.98891,1108,20.186)"
                 id="g3910"
                 style="stroke-width:1.89300001px">
                <path
                   d="m -1218,-94.472 c 11.218,14.594 34.948,9.4379 53.165,14.691 80.077,23.092 500.25,18.606 500.25,18.606 l 159.93,-42.454 -69.537,-0.10362 -2.3919,0.0222 70.499,0.13626 -101.39,26.928 -0.10486,-55.671 101.35,27.408 1.5599,-0.0294 -160.11,-43.249 c 0,0 -264.22,-4.2987 -413.48004,5.2016 l 16.182,-10.799 167.23004,-3.7694 -34.353,-20.088 -151.48004,6.657 -32.715,30.665 c -22.381,2.109 -40.391,4.6954 -51.565,7.858 -18.256,5.1677 -42.157,-0.24798 -53.251,14.388 -4.7406,6.2539 -4.6025,17.348 0.2037,23.6 z"
                   id="path3897"
                   inkscape:connector-curvature="0"
                   style="stroke:#000000" />
                <path
                   d="m -673.21,-66.201 -0.19147,-78.596 8.598,0.0338 0.148,78.587 z m -248.66,-0.68635 -0.16554,-78.613 12.854,0.0421 0.19146,78.596 z"
                   id="path3630"
                   inkscape:connector-curvature="0"
                   style="fill:#ffffff;stroke:#ffffff" />
              </g>
            </g>
          </g>
          <g
             style=""
             id="g4881"
             transform="matrix(0.02336439,0,0,0.01802718,176.65618,182.97001)">
	<path
   id="path4873"
   d="m 626.407,50.022 c -7.193,-0.778 -14.386,-0.539 -21.585,-0.225 -7.199,-0.314 -14.392,-0.553 -21.585,0.225 -331.359,5.401 -548.526,303.484 -505.202,600.403 23.893,167.215 115.647,257.266 171.46,316.006 120.016,126.058 98.977,162.49 139.248,225.625 -21.847,28.048 -24.026,71.245 -1.648,99.612 -17.364,28.58 -17.665,68.765 4.713,94.775 -20.476,31.982 -18.608,77.175 8.345,100.906 -5.833,37.263 21.687,100.389 96.352,99.134 1.835,7.057 2.615,35.574 28.544,52.411 22.791,15.301 33.22,8.487 120.829,10.596 13.537,0.213 27.393,-2.995 38.715,-10.596 25.906,-16.821 26.712,-45.365 28.544,-52.411 69.851,1.174 102.81,-57.885 96.352,-99.134 27.183,-23.933 28.625,-69.231 8.345,-100.906 22.378,-26.01 22.077,-66.196 4.713,-94.775 22.378,-28.367 20.199,-71.564 -1.648,-99.612 18.569,-29.111 27.339,-62.953 42.134,-93.907 40.361,-89.323 118.845,-144.285 175.146,-219.92 C 1278.898,552.106 1058.01,57.057 626.407,50.022 Z"
   inkscape:connector-curvature="0" />

	<g
   id="g4879">
		<path
   id="path4875"
   d="m 524.2,322.601 c 48.714,52.887 44.272,124.135 -12.19,172.027 46.6,39.059 62.963,107.336 29.43,160.439 -21.599,-8.771 -47.219,-9.905 -68.41,0.62 -15.397,-10.737 -34.816,-15.521 -53.314,-11.269 -14.058,-51.802 -57.926,-76.267 -110.562,-64.442 0,-12.952 -2.87,-25.904 -9.444,-37.155 20.766,-1.914 41.142,-10.418 55.99,-25.249 21.952,26.53 58.082,34.106 89.726,13.891 8.221,17.169 22.396,31.539 40.132,38.803 2.906,-7.194 5.723,-14.405 8.717,-21.545 -36.456,-15.635 -47.837,-72.308 -8.523,-99.453 -4.43,-6.414 -8.806,-12.863 -13.236,-19.26 -24.93,16.638 -38.218,47.839 -33.984,77.394 -24.695,20.091 -53.098,13.835 -68.269,-9.143 7.335,-14.263 9.798,-31.113 5.262,-46.617 33.944,-20.88 37.112,-62.047 22.485,-93.251 47.074,-1.22 78.651,-30.766 80.175,-77.022 22.378,-7.016 40.061,-26.241 45.111,-49.168 -7.389,-1.931 -14.813,-3.703 -22.307,-5.191 -9.078,40.401 -58.74,44.695 -86.395,13.129 -5.971,5.014 -11.747,10.223 -17.488,15.468 14.635,16.726 35.472,28.19 57.903,29.271 -12.072,102.836 -178.404,29.849 -144.847,-52.677 9.459,-25.101 38.855,-44.549 72.096,-30.794 C 493.056,37.494 609.684,207.751 524.2,322.601 Z M 286.208,279.616 c 15.991,41.547 43.497,61.444 79.91,74.452 32.534,25.859 18.474,85.043 -26.028,83.081 25.214,28.823 16.994,54.331 -9.639,70.395 -57.774,33.943 -73.298,-18.663 -141.941,17.311 -43.266,-51.995 2.963,-129.5 66.887,-128.263 C 221.842,360.836 220.778,286.18 286.208,279.616 Z M 278.695,614.9 c 56.62,-24.962 104.915,-20.123 119.634,39.707 -17.346,12.793 -26.79,34.834 -23.867,56.22 -62.888,42.087 -43.474,132.334 37.988,140.542 4.057,29.944 26.453,54.98 54.253,65.629 3.154,-7.087 5.599,-14.44 8.434,-21.634 -50.724,-20.729 -57.526,-88.132 2.959,-104.308 -1.719,-7.53 -3.366,-15.078 -5.05,-22.609 -29.82,6.607 -52.852,26.297 -60.313,59.48 -64.036,-8.064 -70.705,-74.236 -11.535,-105.141 -14.002,-59.62 33.091,-71.614 70.324,-36.783 66.736,-56.035 146.207,56.851 67.755,140.435 C 631.752,926.482 527.655,1049.41 438.885,958.705 371.144,986 329.921,946.726 339.042,877.803 268.232,898.034 224.863,842.089 245.737,772.379 179.625,751.568 155.158,693.133 158.173,629.144 167.241,497.084 324.8,511.164 278.695,614.9 Z"
   class="st0"
   inkscape:connector-curvature="0"
   style="fill:#ffffff" />

		<path
   id="path4877"
   d="m 827.386,201.408 c 33.147,-13.716 62.603,5.603 72.096,30.794 33.577,82.577 -132.791,155.377 -144.847,52.677 22.431,-1.081 43.268,-12.545 57.903,-29.271 -5.741,-5.245 -11.517,-10.454 -17.488,-15.468 -27.647,31.557 -77.315,27.28 -86.395,-13.129 -7.495,1.488 -14.919,3.26 -22.307,5.191 5.05,22.928 22.733,42.152 45.111,49.168 1.524,46.257 33.105,75.801 80.175,77.022 -14.488,30.908 -11.75,72.193 22.485,93.251 -4.536,15.504 -2.073,32.354 5.262,46.617 -15.126,22.91 -43.508,29.288 -68.269,9.143 4.235,-29.554 -9.054,-60.756 -33.984,-77.394 -4.43,6.396 -8.806,12.846 -13.236,19.26 39.299,27.134 27.947,83.812 -8.523,99.453 2.994,7.141 5.812,14.352 8.717,21.545 17.736,-7.265 31.911,-21.634 40.132,-38.803 31.218,19.942 67.449,13.031 89.726,-13.891 14.848,14.83 35.224,23.335 55.99,25.249 -6.573,11.251 -9.444,24.203 -9.444,37.155 -52.583,-11.813 -96.491,12.589 -110.562,64.442 -18.498,-4.252 -37.917,0.532 -53.314,11.269 -21.191,-10.525 -46.812,-9.391 -68.41,-0.62 -33.571,-53.164 -17.113,-121.428 29.43,-160.439 -56.477,-47.905 -60.891,-119.154 -12.19,-172.027 -75.922,-102.004 5.287,-223.719 84.02,-180.337 24.594,13.624 42.437,36.233 57.922,59.143 z M 954.25,396.593 c 63.903,-1.237 110.171,76.246 66.887,128.263 -15.694,-8.225 -37.67,-20.541 -78.882,-8.363 -46.737,13.978 -119.009,-26.402 -72.698,-79.343 -44.501,1.961 -58.568,-57.218 -26.028,-83.081 35.043,-12.519 63.386,-31.523 79.91,-74.452 64.775,6.497 64.734,80.825 30.811,116.976 z m 9.656,375.788 c 20.839,69.591 -22.337,125.7 -93.305,105.424 9.123,68.938 -32.481,108.044 -99.843,80.902 -89.352,91.299 -192.353,-32.78 -100.392,-132.267 -78.548,-83.687 0.915,-196.557 67.755,-140.435 36.775,-34.403 84.439,-23.315 70.324,36.783 58.943,30.786 52.747,97.046 -11.535,105.141 -7.412,-32.964 -30.243,-52.818 -60.313,-59.48 -1.683,7.53 -3.331,15.078 -5.05,22.609 60.391,16.15 53.744,83.554 2.959,104.308 2.835,7.194 5.28,14.547 8.434,21.634 27.8,-10.649 50.196,-35.685 54.253,-65.629 81.536,-8.215 100.853,-98.471 37.988,-140.542 2.924,-21.386 -6.52,-43.428 -23.867,-56.22 14.762,-60.007 63.078,-64.641 119.634,-39.707 -37.249,-83.81 51.987,-98.654 90.062,-61.323 48.087,46.071 48.526,185.552 -57.104,218.802 z"
   class="st0"
   inkscape:connector-curvature="0"
   style="fill:#ffffff" />

	</g>

</g>
          <g
             transform="matrix(0.05617229,0,0,-0.04633635,309.93575,212.83897)"
             inkscape:label="pencils-2-publicdomainvectors.org [Converted]"
             id="g18433">
            <g
               id="g18435">
              <g
                 clip-path="url(#clipPath18441)"
                 id="g18437">
                <path
                   inkscape:connector-curvature="0"
                   id="path18443"
                   style="fill:#231f20;fill-opacity:1;fill-rule:nonzero;stroke:none"
                   d="m 259.891,181.099 -0.006,-3.235 71.636,-0.119 0.006,3.234 -6.271,14.175 -58.732,0.099 z" />
                <path
                   inkscape:connector-curvature="0"
                   id="path18445"
                   style="fill:#231f20;fill-opacity:1;fill-rule:nonzero;stroke:none"
                   d="m 268.927,200.376 54.058,-0.09 -7.704,17.412 -38.206,0.063 z" />
                <path
                   inkscape:connector-curvature="0"
                   id="path18447"
                   style="fill:#231f20;fill-opacity:1;fill-rule:nonzero;stroke:none"
                   d="m 331.226,-0.979 c 0.156,94.177 0.289,173.769 0.289,173.769 l -71.638,0.118 c 0,0 -0.132,-79.658 -0.289,-173.887 z" />
                <path
                   inkscape:connector-curvature="0"
                   id="path18449"
                   style="fill:#231f20;fill-opacity:1;fill-rule:nonzero;stroke:none"
                   d="m 287.624,240.271 -8.147,-17.385 33.535,-0.056 -7.705,17.411 z" />
                <path
                   inkscape:connector-curvature="0"
                   id="path18451"
                   style="fill:#231f20;fill-opacity:1;fill-rule:nonzero;stroke:none"
                   d="m 296.714,259.663 -6.687,-14.267 13.01,-0.022 z" />
                <path
                   inkscape:connector-curvature="0"
                   id="path18453"
                   style="fill:#231f20;fill-opacity:1;fill-rule:nonzero;stroke:none"
                   d="m 194.274,585.322 c 0,-10e-4 0.271,-4.719 0.271,-4.719 1.134,-2.33 4.432,-4.749 15.667,-9.317 -7.328,2.315 -14.328,4.497 -20.773,6.454 -15.188,4.613 -26.457,7.759 -34.452,9.619 -8.793,2.046 -17.884,4.161 -20.219,-2.254 0,-10e-4 0.283,-4.829 0.283,-4.829 1.428,-2.927 2.903,-5.954 49.064,-22.058 26.468,-9.234 61.818,-20.739 96.004,-31.866 27.879,-9.074 58.972,-19.194 84.739,-27.99 -27.206,7.812 -60.066,17.798 -89.472,26.734 -36.429,11.071 -74.099,22.519 -102.157,30.336 -15.189,4.232 -26.459,7.099 -34.454,8.766 -10.751,2.242 -17.957,3.274 -20.09,-2.586 l 0.287,-4.852 c 1.451,-2.976 2.952,-6.052 49.594,-22.312 26.756,-9.327 62.485,-20.934 97.037,-32.158 26.946,-8.754 56.849,-18.47 82.192,-27.07 -22.426,6.503 -47.911,14.199 -71.028,21.181 -32.946,9.95 -67.013,20.239 -92.391,27.262 -13.746,3.804 -23.948,6.381 -31.189,7.879 -8.128,1.68 -16.534,3.418 -18.76,-2.696 0,-10e-4 0.28,-4.787 0.28,-4.787 0.882,-1.809 1.75,-3.56 12.634,-8.225 -2.14,-0.453 -3.799,-1.609 -4.644,-3.929 0,-0.002 0.276,-4.749 0.276,-4.749 1.186,-2.434 2.355,-4.76 29.695,-14.723 -7.043,1.615 -14.186,3.1 -16.299,-2.704 0,-10e-4 0.27,-4.706 0.27,-4.706 1.328,-2.724 2.474,-5.076 38.918,-17.794 20.637,-7.201 48.192,-16.174 74.839,-24.852 5.098,-1.66 10.424,-3.395 15.854,-5.168 -0.695,0.201 -1.395,0.403 -2.081,0.602 -24.311,7.026 -49.449,14.293 -68.186,19.238 -10.171,2.685 -17.727,4.498 -23.099,5.543 -6.268,1.219 -13.372,2.601 -15.42,-3.025 l 0.265,-4.66 c 2.364,-4.847 12.354,-9.13 98.539,-37.151 10.757,-3.498 22.668,-7.37 34.285,-11.209 -7.205,1.786 -14.438,3.596 -21.332,5.321 -20.769,5.199 -42.246,10.574 -58.257,14.189 -8.705,1.964 -15.174,3.273 -19.779,3.999 -5.604,0.883 -11.957,1.885 -13.88,-3.398 l 0.258,-4.594 c 1.135,-2.328 3.737,-4.333 16.482,-9.145 -4.209,0.666 -8.43,0.559 -9.973,-3.68 0,-10e-4 0.252,-4.551 0.252,-4.551 2.037,-4.186 8.328,-6.96 74.744,-28.673 -12.144,2.971 -23.923,5.81 -33.306,7.886 -6.816,1.509 -11.887,2.512 -15.505,3.068 -4.345,0.667 -10.295,1.58 -12.129,-3.46 l 0.247,-4.504 c 1.785,-3.666 4.458,-5.267 63.6,-24.583 6.448,-2.107 13.561,-4.43 20.548,-6.744 -2.77,0.41 -5.491,0.816 -8.073,1.202 -12.277,1.833 -24.972,3.728 -34.452,4.922 -14.18,1.785 -20.049,2.525 -21.955,-2.712 0,-0.005 0.239,-4.444 0.239,-4.444 1.594,-3.276 3.321,-4.36 48.438,-19.124 3.524,-1.153 7.32,-2.396 11.149,-3.657 -0.459,0.042 -0.944,0.087 -1.392,0.129 -9.183,0.855 -18.677,1.739 -25.776,2.238 -11.22,0.789 -15.865,1.116 -17.584,-3.607 -0.219,-0.603 -0.327,-1.251 -0.327,-1.9 0,-0.856 0.188,-1.714 0.556,-2.475 1.424,-2.938 1.607,-3.316 37.006,-15.028 5.545,-1.835 11.995,-3.969 17.683,-5.908 -1.722,-0.367 -3.431,-0.73 -5.014,-1.065 l -14.875,-3.235 c -6.829,-1.589 -9.655,-2.247 -10.853,-5.536 -0.22,-0.607 -0.33,-1.249 -0.33,-1.891 0,-0.842 0.188,-1.683 0.557,-2.442 1.28,-2.632 2.452,-3.016 16.796,-7.714 1.059,-0.347 2.251,-0.738 3.465,-1.138 -9.511,-6.246 -9.713,-6.392 -10.455,-8.43 -0.222,-0.609 -0.332,-1.246 -0.332,-1.883 0,-0.815 0.181,-1.629 0.54,-2.378 1.037,-2.165 2.402,-2.629 6.05,-3.869 l 2.353,-0.82 c -1.78,0.723 -3.211,2.723 -3.211,4.989 0,0.61 0.103,1.238 0.331,1.866 0.634,1.75 2.115,2.985 3.88,3.418 0.643,-0.901 1.06,-2.009 1.06,-3.21 0,-0.615 -0.105,-1.247 -0.336,-1.88 -0.002,0 -1.403,-2.092 -1.403,-2.092 0.687,0.564 4.042,2.781 6.74,4.556 0.056,-0.099 0.138,-0.176 0.187,-0.279 -0.055,0.114 -0.124,0.177 -0.181,0.282 0.362,0.239 0.716,0.47 1.046,0.687 9.769,6.416 9.956,6.539 10.703,8.599 0.22,0.604 0.328,1.244 0.328,1.884 0,0.842 -0.187,1.683 -0.557,2.443 -1.158,2.381 -2.261,2.931 -13.081,6.493 1.325,0.282 2.63,0.56 3.858,0.819 l 14.882,3.238 c 6.831,1.589 9.658,2.247 10.856,5.537 0.22,0.602 0.328,1.251 0.328,1.9 0,0.856 -0.188,1.714 -0.556,2.476 -1.396,2.879 -1.686,3.327 -35.033,14.373 9.081,-0.846 18.438,-1.716 25.453,-2.209 11.221,-0.789 15.866,-1.116 17.584,3.609 -10e-4,0 -0.24,4.442 -0.24,4.442 -1.593,3.276 -3.319,4.36 -48.434,19.123 -0.776,0.254 -1.578,0.516 -2.377,0.778 1.724,-0.256 3.425,-0.51 5.062,-0.755 12.278,-1.833 24.974,-3.728 34.453,-4.922 14.182,-1.786 20.052,-2.525 21.958,2.713 -0.001,0 -0.248,4.504 -0.248,4.504 -1.545,3.175 -3.786,4.81 -42.771,17.737 10.178,-2.476 19.875,-4.79 27.841,-6.553 6.814,-1.509 11.884,-2.512 15.502,-3.067 4.343,-0.667 10.293,-1.58 12.127,3.459 l -0.252,4.55 c -0.696,1.43 -1.893,2.695 -5.8,4.604 0.213,-0.046 0.472,-0.109 0.677,-0.152 5.112,-1.074 11.473,-2.411 13.449,3.016 0,10e-4 -0.257,4.593 -0.257,4.593 -2.179,4.472 -9.681,7.723 -84.268,32.021 -4.36,1.42 -8.862,2.888 -13.402,4.371 4.986,-1.242 9.935,-2.48 14.715,-3.677 20.77,-5.198 42.247,-10.574 58.26,-14.188 8.705,-1.965 15.174,-3.274 19.78,-4 5.604,-0.884 11.957,-1.885 13.88,3.398 l -0.265,4.659 c -2.219,4.552 -11.168,8.607 -83.568,32.272 19.864,-5.728 39.396,-11.304 54.67,-15.336 10.172,-2.685 17.728,-4.498 23.101,-5.543 6.269,-1.219 13.374,-2.601 15.421,3.025 l -0.269,4.706 c -0.913,1.872 -1.741,3.568 -13.99,8.571 1.15,-0.286 2.254,-0.555 3.264,-0.787 7.218,-1.66 14.682,-3.376 16.85,2.58 0,0.004 -0.275,4.749 -0.275,4.749 -0.4,0.822 -0.817,1.635 -2.213,2.727 4.252,-0.431 7.751,0.282 9.119,4.04 0,0.002 -0.279,4.786 -0.279,4.786 -1.403,2.878 -2.729,5.597 -44.508,20.165 -23.839,8.312 -55.669,18.659 -86.451,28.665 -17.696,5.752 -36.832,11.974 -54.714,17.917 19.312,-5.68 40.078,-11.95 59.223,-17.732 32.945,-9.951 67.013,-20.239 92.391,-27.263 13.746,-3.804 23.948,-6.38 31.188,-7.878 8.129,-1.681 16.534,-3.419 18.76,2.696 l -0.286,4.853 c -1.451,2.975 -2.952,6.053 -49.597,22.312 -26.758,9.328 -62.487,20.935 -97.041,32.16 -29.012,9.425 -61.455,19.966 -87.936,29.028 27.52,-7.88 61.12,-18.09 91.123,-27.208 36.427,-11.07 74.095,-22.518 102.153,-30.334 15.187,-4.232 26.457,-7.099 34.451,-8.766 10.75,-2.242 17.957,-3.274 20.089,2.586 l -0.283,4.829 c -1.38,2.83 -2.812,5.756 -44.631,20.503 2.122,-0.654 4.3,-1.331 6.326,-1.946 15.187,-4.612 26.456,-7.759 34.451,-9.619 8.793,-2.045 17.885,-4.16 20.219,2.255 l -0.271,4.718 c -2.701,5.549 -17.504,11.558 -123.363,46.13 -19.547,6.384 -40.963,13.379 -60.139,19.832 19.998,-5.422 42.009,-11.624 61.179,-17.025 30.238,-8.52 61.506,-17.331 84.802,-23.312 12.625,-3.242 21.997,-5.425 28.651,-6.673 7.614,-1.429 15.486,-2.905 17.629,2.984 l -0.258,4.6 c -2.175,4.466 -10.398,8.023 -86.336,32.767 -1.896,0.618 -3.825,1.247 -5.765,1.879 3.515,-0.923 6.983,-1.835 10.309,-2.71 22.072,-5.81 44.894,-11.818 61.908,-15.875 9.243,-2.205 16.112,-3.68 20.999,-4.511 5.846,-0.994 12.473,-2.12 14.439,3.283 l -0.244,4.482 c -1.485,3.054 -3.405,4.516 -38.415,16.153 8.208,-1.908 15.985,-3.678 22.483,-5.054 17.864,-3.782 23.611,-4.712 25.64,0.864 0.22,0.602 0.327,1.251 0.327,1.902 0,0.862 -0.189,1.726 -0.559,2.49 -1.384,2.848 -1.721,3.376 -33.97,13.992 0.186,-0.017 0.379,-0.036 0.563,-0.053 9.37,-0.866 19.06,-1.763 26.304,-2.268 11.39,-0.794 16.104,-1.122 17.828,3.617 0.503,1.385 0.43,2.919 -0.203,4.25 -1.062,2.231 -1.235,2.292 -10.338,5.438 -2.325,0.804 -5.839,2.019 -6.516,2.313 1.68,-0.73 3.015,-2.667 3.048,-4.846 -7.642,0.465 -19.568,1.567 -29.109,2.45 -9.37,0.867 -19.06,1.763 -26.304,2.268 -11.389,0.794 -16.104,1.123 -17.828,-3.617 -0.219,-0.602 -0.326,-1.25 -0.326,-1.901 0,-0.861 0.188,-1.726 0.56,-2.489 0.295,-0.609 0.556,-1.112 1.073,-1.629 -11.052,2.597 -21.773,5.076 -30.313,6.884 -17.863,3.782 -23.61,4.713 -25.639,-0.864 l 0.244,-4.482 c 1.256,-2.583 2.816,-4.025 24.453,-11.451 -21.223,5.586 -42.889,11.273 -59.211,15.165 -9.243,2.205 -16.112,3.68 -20.999,4.511 -5.847,0.994 -12.473,2.121 -14.44,-3.282 0,-0.003 0.258,-4.6 0.258,-4.6 2.177,-4.467 10.398,-8.024 86.336,-32.767 0.015,-0.005 0.03,-0.01 0.045,-0.015 -13.035,3.621 -26.146,7.314 -38.142,10.695 -30.238,8.52 -61.505,17.329 -84.799,23.311 -12.625,3.242 -21.996,5.425 -28.65,6.673 -7.613,1.428 -15.486,2.905 -17.63,-2.984" />
              </g>
            </g>
          </g>
          <text
             transform="scale(1.0180471,0.98227286)"
             id="text5067"
             y="73.951431"
             x="311.86411"
             style="font-style:normal;font-variant:normal;font-weight:normal;font-stretch:normal;font-size:0.80750227px;line-height:1.25;font-family:'Franklin Gothic Heavy';-inkscape-font-specification:'Franklin Gothic Heavy, ';letter-spacing:0px;word-spacing:0px;fill:#2eaf2e;fill-opacity:1;stroke:none;stroke-width:0.15140668"
             xml:space="preserve"><tspan
               style="fill:#2eaf2e;fill-opacity:1;stroke-width:0.15140668"
               y="73.951431"
               x="311.86411"
               id="tspan5065"
               sodipodi:role="line">$('button').onclick() =&gt; {</tspan></text>
          <text
             transform="scale(0.83268476,1.2009347)"
             id="text5071"
             y="61.390495"
             x="382.55325"
             style="font-style:normal;font-variant:normal;font-weight:normal;font-stretch:normal;font-size:0.86820889px;line-height:1.25;font-family:'Franklin Gothic Heavy';-inkscape-font-specification:'Franklin Gothic Heavy, ';letter-spacing:0px;word-spacing:0px;fill:#2eaf2e;fill-opacity:1;stroke:none;stroke-width:0.16278915"
             xml:space="preserve"><tspan
               style="fill:#2eaf2e;fill-opacity:1;stroke-width:0.16278915"
               y="61.390495"
               x="382.55325"
               id="tspan5069"
               sodipodi:role="line">$overlay.addclass('animate');</tspan></text>
          <text
             transform="scale(0.83936866,1.1913716)"
             id="text5075"
             y="62.747601"
             x="378.31918"
             style="font-style:normal;font-variant:normal;font-weight:normal;font-stretch:normal;font-size:0.87805605px;line-height:1.25;font-family:'Franklin Gothic Heavy';-inkscape-font-specification:'Franklin Gothic Heavy, ';letter-spacing:0px;word-spacing:0px;fill:#2eaf2e;fill-opacity:1;stroke:none;stroke-width:0.16463551"
             xml:space="preserve"><tspan
               style="fill:#2eaf2e;fill-opacity:1;stroke-width:0.16463551"
               y="62.747601"
               x="378.31918"
               id="tspan5073"
               sodipodi:role="line">}</tspan></text>
          <text
             transform="scale(1.0200715,0.98032342)"
             id="text5079"
             y="77.546005"
             x="311.21231"
             style="font-style:normal;font-variant:normal;font-weight:normal;font-stretch:normal;font-size:0.88267064px;line-height:1.25;font-family:'Franklin Gothic Heavy';-inkscape-font-specification:'Franklin Gothic Heavy, ';letter-spacing:0px;word-spacing:0px;fill:#2eaf2e;fill-opacity:1;stroke:none;stroke-width:0.16550075"
             xml:space="preserve"><tspan
               style="fill:#2eaf2e;fill-opacity:1;stroke-width:0.16550075"
               y="77.546005"
               x="311.21231"
               id="tspan5077"
               sodipodi:role="line">if (read === true) {</tspan><tspan
               id="tspan5081"
               style="fill:#2eaf2e;fill-opacity:1;stroke-width:0.16550075"
               y="78.649345"
               x="311.21231"
               sodipodi:role="line" /></text>
          <text
             transform="scale(1.0892036,0.91810198)"
             id="text5085"
             y="83.967194"
             x="291.51202"
             style="font-style:normal;font-variant:normal;font-weight:normal;font-stretch:normal;font-size:0.84899151px;line-height:1.25;font-family:'Franklin Gothic Heavy';-inkscape-font-specification:'Franklin Gothic Heavy, ';letter-spacing:0px;word-spacing:0px;fill:#2eaf2e;fill-opacity:1;stroke:none;stroke-width:0.1591859"
             xml:space="preserve"><tspan
               style="fill:#2eaf2e;fill-opacity:1;stroke-width:0.1591859"
               y="83.967194"
               x="291.51202"
               id="tspan5083"
               sodipodi:role="line">$you = 'awesome';</tspan><tspan
               id="tspan5087"
               style="fill:#2eaf2e;fill-opacity:1;stroke-width:0.1591859"
               y="85.028435"
               x="291.51202"
               sodipodi:role="line">}</tspan></text>
        </g>
      </g>
    </g>
    <text
       xml:space="preserve"
       style="font-style:normal;font-variant:normal;font-weight:normal;font-stretch:normal;font-size:5.64444462px;line-height:1.25;font-family:'Franklin Gothic Heavy';-inkscape-font-specification:'Franklin Gothic Heavy, ';letter-spacing:0px;word-spacing:0px;fill:#000000;fill-opacity:1;stroke:none;stroke-width:0.26458335;"
       x="-15.497025"
       y="91.002907"
       id="text6934"><tspan
         sodipodi:role="line"
         id="tspan6932"
         x="-15.497025"
         y="95.505272"
         style="stroke-width:0.26458335;font-size:5.64444462px;" /></text>
    <text
       xml:space="preserve"
       style="font-style:normal;font-variant:normal;font-weight:normal;font-stretch:normal;font-size:7.05555578px;line-height:1.25;font-family:'Franklin Gothic Heavy';-inkscape-font-specification:'Franklin Gothic Heavy, ';letter-spacing:0px;word-spacing:0px;fill:#000000;fill-opacity:1;stroke:none;stroke-width:0.26458335;"
       x="-13.98512"
       y="89.113014"
       id="text6938"><tspan
         sodipodi:role="line"
         id="tspan6936"
         x="-13.98512"
         y="93.615379"
         style="stroke-width:0.26458335;font-size:7.05555578px;" /></text>
    <text
       xml:space="preserve"
       style="font-style:normal;font-variant:normal;font-weight:normal;font-stretch:normal;font-size:7.05555534px;line-height:1.25;font-family:'Franklin Gothic Heavy';-inkscape-font-specification:'Franklin Gothic Heavy, ';letter-spacing:0px;word-spacing:0px;fill:#000000;fill-opacity:1;stroke:none;stroke-width:0.26458335"
       x="109.63396"
       y="252.847"
       id="text6978"><tspan
         sodipodi:role="line"
         id="tspan6976"
         x="109.63396"
         y="259.27896"
         style="stroke-width:0.26458335" /></text>
  </g>
  <style
     id="style4871"
     type="text/css">
	.st0{fill:#FFFFFF;}
</style>
  <style
     id="style4923"
     type="text/css">
	.st0{fill:none;}
	.st1{fill-rule:evenodd;clip-rule:evenodd;}
	.st2{fill-rule:evenodd;clip-rule:evenodd;fill:#FFFFFF;}
	.st3{opacity:0.65;fill-rule:evenodd;clip-rule:evenodd;fill:#FFFFFF;}
	.st4{opacity:0.11;fill-rule:evenodd;clip-rule:evenodd;fill:#FFFFFF;}
</style>
</svg>
