<svg xmlns="http://www.w3.org/2000/svg" xmlns:xlink="http://www.w3.org/1999/xlink" viewBox="0 0 508 285.75" version="1.1" id="svg8">
  <defs id="defs2">
    <linearGradient id="linearGradient6972">
      <stop style="stop-color:#5469c4;stop-opacity:1" offset="0" id="stop6968"/>
      <stop style="stop-color:#5469c4;stop-opacity:0" offset="1" id="stop6970"/>
    </linearGradient>
    <linearGradient id="linearGradient6872">
      <stop style="stop-color:#ededed;stop-opacity:1" offset="0" id="stop6868"/>
      <stop style="stop-color:#040091;stop-opacity:1" offset="1" id="stop6870"/>
    </linearGradient>
    <linearGradient id="linearGradient4599">
      <stop style="stop-color:#000;stop-opacity:1" offset="0" id="stop4595"/>
      <stop style="stop-color:#030091;stop-opacity:.99502486" offset="1" id="stop4597"/>
    </linearGradient>
    <linearGradient id="linearGradient4573">
      <stop style="stop-color:#525252;stop-opacity:1" offset="0" id="stop4569"/>
      <stop style="stop-color:#000992;stop-opacity:1" offset="1" id="stop4571"/>
    </linearGradient>
    <linearGradient xlink:href="#linearGradient4573" id="linearGradient4577" x1="65.471" y1="136.756" x2="167.198" y2="182.192" gradientUnits="userSpaceOnUse" gradientTransform="translate(154.482 .535)"/>
    <linearGradient xlink:href="#linearGradient4599" id="linearGradient4601" x1="172.4" y1="283.072" x2="208.771" y2="299.42" gradientUnits="userSpaceOnUse" gradientTransform="translate(-1.036 3.374)"/>
    <linearGradient xlink:href="#linearGradient4599" id="linearGradient4609" x1="186.904" y1="274.652" x2="192.836" y2="278.574" gradientUnits="userSpaceOnUse" gradientTransform="translate(-.568 3.107)"/>
    <linearGradient xlink:href="#linearGradient4599" id="linearGradient4659" x1="61.486" y1="133.745" x2="142.031" y2="162.517" gradientUnits="userSpaceOnUse"/>
    <linearGradient xlink:href="#linearGradient4599" id="linearGradient4705" gradientUnits="userSpaceOnUse" x1="61.486" y1="133.745" x2="142.031" y2="162.517"/>
    <linearGradient xlink:href="#linearGradient4573" id="linearGradient6626" gradientUnits="userSpaceOnUse" gradientTransform="translate(154.482 .535)" x1="65.471" y1="136.756" x2="167.198" y2="182.192"/>
    <linearGradient xlink:href="#linearGradient4599" id="linearGradient6647" x1="186.153" y1="137.116" x2="380.433" y2="261.092" gradientUnits="userSpaceOnUse"/>
    <linearGradient xlink:href="#linearGradient4599" id="linearGradient6659" x1="200.35" y1="135.327" x2="356.624" y2="246.452" gradientUnits="userSpaceOnUse"/>
    <linearGradient xlink:href="#linearGradient6872" id="linearGradient6874" x1="536.726" y1="136.738" x2="688.188" y2="413.628" gradientUnits="userSpaceOnUse" gradientTransform="translate(-279.439 -120.857)"/>
    <linearGradient xlink:href="#linearGradient6972" id="linearGradient6974" x1="-22.852" y1="197.24" x2="403.545" y2="192.376" gradientUnits="userSpaceOnUse"/>
    <clipPath clipPathUnits="userSpaceOnUse" id="clipPath2564">
      <path d="M72.54 579.24h466.92V342.15H72.54z" id="path2566"/>
    </clipPath>
    <clipPath id="clipPath18441" clipPathUnits="userSpaceOnUse">
      <path id="path18439" d="M0 600h600V0H0z"/>
    </clipPath>
  </defs>
  <g id="layer1" transform="translate(0 -11.25)">
    <text xml:space="preserve" style="font-style:normal;font-variant:normal;font-weight:400;font-stretch:normal;font-size:7.05555534px;line-height:1.25;font-family:'Franklin Gothic Heavy';-inkscape-font-specification:'Franklin Gothic Heavy, ';letter-spacing:0;word-spacing:0;fill:url(#linearGradient6974);fill-opacity:1;stroke:none;stroke-width:.26458335" x="-23.279" y="96.109" id="text6942">
      <tspan id="tspan6940" x="-23.279" y="96.109" style="font-size:14.11111164px;fill:url(#linearGradient6974);fill-opacity:1;stroke-width:.26458335">01100111011010110100111101100001011011110011</tspan><tspan x="-23.279" y="113.748" style="font-size:14.11111164px;fill:url(#linearGradient6974);fill-opacity:1;stroke-width:.26458335" id="tspan6944">1110010110110101010110111101000101011001</tspan><tspan x="-23.279" y="131.387" style="font-size:14.11111164px;fill:url(#linearGradient6974);fill-opacity:1;stroke-width:.26458335" id="tspan6946">0000101101011000001111010101000011010</tspan><tspan x="-23.279" y="149.026" style="font-size:14.11111164px;fill:url(#linearGradient6974);fill-opacity:1;stroke-width:.26458335" id="tspan6948">1001010101101010110110101010100001</tspan><tspan x="-23.279" y="166.665" style="font-size:14.11111164px;fill:url(#linearGradient6974);fill-opacity:1;stroke-width:.26458335" id="tspan6950">0101101011011010001011101101010</tspan><tspan x="-23.279" y="184.304" style="font-size:14.11111164px;fill:url(#linearGradient6974);fill-opacity:1;stroke-width:.26458335" id="tspan6952">1010101010110101101011011011010110101011</tspan><tspan x="-23.279" y="201.943" style="font-size:14.11111164px;fill:url(#linearGradient6974);fill-opacity:1;stroke-width:.26458335" id="tspan6954">0001101010000001111110101</tspan><tspan x="-23.279" y="219.581" style="font-size:14.11111164px;fill:url(#linearGradient6974);fill-opacity:1;stroke-width:.26458335" id="tspan6956">0101101101101010100000</tspan><tspan x="-23.279" y="237.22" style="font-size:14.11111164px;fill:url(#linearGradient6974);fill-opacity:1;stroke-width:.26458335" id="tspan6958">1010011011011000111</tspan><tspan x="-23.279" y="254.859" style="font-size:14.11111164px;fill:url(#linearGradient6974);fill-opacity:1;stroke-width:.26458335" id="tspan6960">0000110101101101010101101100110</tspan><tspan x="-23.279" y="272.498" style="font-size:14.11111164px;fill:url(#linearGradient6974);fill-opacity:1;stroke-width:.26458335" id="tspan6962">0101011011010010110101101011100110101011010</tspan><tspan x="-23.279" y="290.137" style="font-size:14.11111164px;fill:url(#linearGradient6974);fill-opacity:1;stroke-width:.26458335" id="tspan6964">1010101010</tspan><tspan x="-23.279" y="307.776" style="font-size:14.11111164px;fill:url(#linearGradient6974);fill-opacity:1;stroke-width:.26458335" id="tspan6966">011011100010101010101101110111011101101010110110101011010</tspan>
    </text>
    <path style="opacity:.70999995;fill:url(#linearGradient6874);fill-opacity:1;fill-rule:nonzero;stroke:none;stroke-width:2.11666679;stroke-miterlimit:4;stroke-dasharray:none;stroke-opacity:1" id="rect6836" d="M-25.439 15.503h568.81v298.54h-568.81z"/>
    <text xml:space="preserve" style="font-style:normal;font-weight:400;font-size:1.41111112px;line-height:1.25;font-family:sans-serif;letter-spacing:0;word-spacing:0;fill:#000;fill-opacity:1;stroke:none;stroke-width:.26458332" x="191.165" y="290.819" id="text4613"/>
    <g id="g4623" transform="translate(154.482 .535)">
      <path d="M178.162 287.762c.093-.108.18-.221.262-.338.055-.082.12-.153.187-.224.07-.062.13-.133.199-.197.057-.061.124-.115.174-.184.04-.056.094-.1.146-.146.055-.042.093-.098.137-.15.055-.058.094-.128.14-.192.055-.067.087-.147.124-.225.043-.072.05-.154.07-.234.02-.088.052-.172.083-.257.036-.107.05-.22.069-.33.033-.166.067-.331.107-.495.038-.132.056-.268.066-.404.014-.119.055-.232.079-.35.026-.082.048-.165.06-.252.007-.088.004-.175.021-.261.023-.129.079-.142.224-.203a.416.416 0 01.072.023c.133.07.25.164.375.249.163.12.346.207.53.289.224.103.454.192.688.27.211.067.427.111.647.137.164.016.33.016.494.017.121 0 .242 0 .363-.003.098.007.193-.016.288-.03.096-.023.18-.073.271-.109.053-.035.226-.1-.04.026-.012.006.024-.017.035-.026.044-.034.024-.02.07-.05.057-.044.118-.089.167-.142.05-.072.273-.273.249-.087-.055.153-.099.31-.15.465-.07.215-.16.422-.246.63-.088.238-.195.467-.3.696-.114.236-.229.47-.326.713-.082.21-.174.417-.26.627a5.183 5.183 0 01-.171.467c-.04.098-.07.2-.102.3-.017.07-.045.151.007.211.098.07.224.073.34.081.228.016.453-.021.675-.062.24-.043.472-.11.705-.177.304-.084.605-.179.9-.293.307-.125.608-.267.897-.432-.004 0-.014 0-.011-.003.022-.017.26-.18.284-.197.142-.1.275-.21.41-.32.246-.222.482-.455.715-.69.187-.205.364-.417.519-.648.152-.212.261-.45.377-.683.104-.193.195-.39.271-.595.063-.16.132-.316.182-.48.047-.156.098-.31.15-.464a2.03 2.03 0 00.119-.431c.024-.12.046-.241.058-.363.018-.096.037-.192.047-.289.006-.071-.006-.162.158-.08.026.013-.012.057-.018.085l-.022.106c-.05.296-.077.595-.12.892-.066.404-.132.808-.195 1.212-.077.494-.132.99-.217 1.482-.096.54-.174 1.08-.234 1.625-.053.63-.08 1.26-.14 1.89-.054.608-.133 1.214-.206 1.82a72.353 72.353 0 01-.2 1.688c-.08.56-.179 1.116-.301 1.667-.056.226-.11.453-.16.68-.026.11-.045.23-.128.314-.065.035-.127.078-.195.107-.038.016-.269-.06-.316-.077-.134-.05-.27-.095-.4-.151a4.383 4.383 0 01-.363-.175c-.095-.047-.173-.118-.26-.175-.088-.06-.164-.135-.24-.21a2.302 2.302 0 01-.226-.247c-.074-.107-.13-.226-.188-.342a3.72 3.72 0 01-.2-.468c-.065-.15-.091-.31-.109-.47-.013-.135-.012-.27-.012-.406v-.364c0-.116-.004-.23.02-.343.043-.166.135-.309.24-.443a5.002 5.002 0 011.271-1.184c.35-.232.702-.458 1.052-.689.375-.263.747-.53 1.13-.783.344-.224.689-.449 1.04-.663.306-.19.608-.386.902-.594.276-.2.522-.435.78-.656.269-.222.498-.487.742-.734.229-.232.447-.475.647-.732.173-.245.348-.489.497-.75.131-.241.222-.501.332-.753.124-.273.219-.558.32-.84.092-.25.191-.499.275-.752.085-.269.148-.544.205-.82.063-.285.12-.573.168-.861.045-.273.057-.55.064-.826.004-.223.003-.446.003-.67a3.065 3.065 0 00-.042-.607c-.025-.164-.04-.33-.076-.492a3.322 3.322 0 00-.138-.394c-.04-.085-.084-.154-.175-.187a.593.593 0 00-.295 0 1.27 1.27 0 00-.261.105l.098-.052c-.197.116-.343.29-.49.461-.214.251-.39.53-.565.81a6.141 6.141 0 00-.485.962c-.144.36-.26.728-.363 1.1-.19.668-.331 1.347-.45 2.03-.097.57-.161 1.146-.22 1.721-.058.689-.058 1.38-.063 2.071.004.57-.004 1.138-.021 1.706-.024.4-.048.799-.061 1.199-.008.285-.01.57-.01.854v.617c-.001.066.006.133-.003.2-.002.014.003.038-.012.042-.06.015-.12.024-.18.037a1.842 1.842 0 01-.012-.375c.007-.158.051-.306.105-.453.08-.196.178-.386.284-.57.116-.19.263-.357.416-.517.157-.188.36-.324.561-.46.29-.19.596-.354.918-.481.195-.08.398-.14.603-.184.156-.03.316-.035.475-.038.132 0 .264-.008.395.014a.35.35 0 01.186.124c.048.08.028.162-.008.243a.94.94 0 01-.179.233c-.059.082-.565.345-.22.156-.155.115-.327.17-.509.22-.214.06-.432.101-.653.129-.252.019-.503.043-.754.059-.233.022-.466.003-.699-.01-.19-.011-.38-.01-.568-.032-.064-.008-.066-.01-.126-.01-.013 0-.05.009-.038.003.055-.03.11-.064.172-.074.025-.004.043.027.065.038.041.022.083.04.125.06.538.247 1.095.441 1.66.613.496.14 1.001.244 1.51.314.268.043.537.073.807.088.086.003.082.004.166.006.019 0 .07-.012.056 0-.156.141-.202.101-.377.081a39.228 39.228 0 00-2.202-.162 69.53 69.53 0 00-2.702-.05c-.867-.017-1.733.03-2.6.055-1.091.03-2.18.1-3.27.165-1.249.071-2.499.131-3.749.183-1.237.05-2.475.06-3.713.051a54.043 54.043 0 01-2.988-.095c-.542-.026-1.084-.066-1.626-.098-.227-.013-.455-.02-.682-.021.078-.035.15-.087.235-.104.06-.011.12.014.18.021l.27.03c.182.019.363.038.545.052.896.069 1.064.063 2.065.101 2.657.06 5.316.022 7.972-.067.805-.026 1.61-.054 2.415-.092.866-.042 1.731-.1 2.597-.149 2.676-.18 5.342-.48 8-.838a91.21 91.21 0 004.095-.633c.514-.092 1.025-.197 1.538-.296 1.35-.288 2.69-.644 3.979-1.144.46-.179.564-.233.99-.43.368-.177.71-.41.976-.723a.845.845 0 00.168-.445c.005-.096-.049-.157-.118-.214-.14-.104-.302-.17-.46-.239a2.654 2.654 0 00-.488-.197c-.142-.037-.281-.083-.42-.127a1.676 1.676 0 00-.389-.076c-.144-.008-.29-.007-.434-.007-.227-.003-.451.042-.673.083-.371.072-.738.16-1.104.254-.465.152-.937.278-1.412.396-.61.139-1.215.297-1.818.463-.787.226-1.576.446-2.367.657-.983.249-1.973.468-2.966.67-1.275.263-2.576.325-3.873.37-1.417.046-2.835-.014-4.25-.102a54.938 54.938 0 01-3.934-.422c-.987-.16-1.972-.34-2.954-.53a14.856 14.856 0 01-2.356-.69 7.154 7.154 0 01-1.161-.59c-.211-.136-.27-.184-.469-.33-.325-.25-.638-.522-.875-.86l.157-.093c.234.338.545.608.867.859.198.146.257.194.467.329.365.234.756.424 1.157.588.764.293 1.549.528 2.352.69.98.191 1.962.372 2.948.533 1.305.19 2.615.33 3.93.424 1.414.088 2.832.147 4.248.101 1.299-.046 2.601-.112 3.877-.377a64.213 64.213 0 002.97-.673c.791-.212 1.581-.434 2.37-.66.603-.167 1.21-.324 1.82-.465a21.15 21.15 0 001.414-.397c.367-.094.736-.182 1.107-.255.224-.041.45-.085.678-.082.145 0 .29 0 .436.007.132.013.263.038.39.08.14.043.278.09.42.127.17.05.33.118.488.2.16.07.324.136.466.241.073.061.128.13.126.23a.872.872 0 01-.166.457c-.34.405-.811.662-1.277.9-.422.192-.523.245-.981.42-1.281.49-2.611.839-3.952 1.12-.509.096-1.016.199-1.526.288-1.433.25-2.616.422-4.073.615-1.659.219-3.618.453-5.275.611-.907.087-1.815.15-2.723.225-.867.051-1.735.11-2.603.154-.806.04-1.612.066-2.418.094-2.67.093-5.34.137-8.011.094-.418-.012-.837-.019-1.254-.036a30.077 30.077 0 01-1.392-.092c-.09-.008-.182-.019-.273-.028-.061-.006-.143.028-.184-.018-.029-.032.044-.076.067-.114.226.005.452.011.678.026.54.034 1.079.076 1.618.103.993.06 1.986.097 2.98.1 1.238.01 2.476 0 3.712-.05 1.25-.053 2.5-.113 3.75-.186 1.091-.065 2.182-.137 3.275-.167.867-.027 1.734-.074 2.602-.057.9.005 1.8.014 2.7.053.74.037 1.478.085 2.215.154.043.004.085.01.128.013.028.003.095-.018.084.008-.066.16-.233.107-.356.105a8.115 8.115 0 01-.803-.091 11.37 11.37 0 01-1.507-.32 14.39 14.39 0 01-1.67-.61c-.042-.02-.086-.038-.128-.06-.025-.013-.082-.02-.071-.045.064-.164.183-.136.305-.12.188.02.378.02.567.03.232.013.464.032.696.01.252-.016.503-.04.754-.06.22-.028.44-.07.653-.132.11-.032.045-.013.15-.046l.06-.019c.016-.006.061-.028.048-.018-.035.028-.076.046-.114.07-.014.009.03-.017.045-.025.066-.04.133-.078.198-.12a2.05 2.05 0 00-.08.048c.024-.016.047-.033.069-.05l.034-.03c.067-.073.137-.139.18-.229.038-.073.062-.149.018-.224a.318.318 0 00-.178-.112c-.13-.02-.261-.012-.393-.012a2.63 2.63 0 00-.472.04 3.742 3.742 0 00-.599.185c-.236.094-.45.196-.604.3-.2.137-.405.27-.561.458-.154.159-.3.324-.418.512a4.906 4.906 0 00-.284.567c-.054.146-.1.291-.107.448-.01.123-.005.247.01.369-.053.04-.108.078-.16.12-.003.003.01.004.012.003.006-.008.007-.02.009-.03.012-.065.004-.131.007-.197v-.618c0-.285.002-.57.012-.856.013-.4.038-.8.063-1.2.019-.569.028-1.138.026-1.707.006-.69.006-1.382.059-2.07a22.146 22.146 0 01.666-3.753c.103-.373.218-.742.36-1.102.138-.334.292-.66.485-.964.174-.28.35-.56.563-.812.145-.172.288-.349.484-.466.157-.094.305-.192.485-.234.1-.022.203-.02.302.008.093.04.14.111.182.2.056.13.1.262.139.397.037.163.05.33.076.495.031.202.052.404.043.61 0 .223 0 .447-.004.67-.007.277-.02.554-.064.828-.048.289-.104.577-.167.862-.056.277-.12.552-.204.822-.083.254-.183.502-.276.752-.101.282-.195.568-.32.841-.11.252-.2.513-.33.756-.148.261-.324.506-.496.751a8.287 8.287 0 01-.647.736c-.246.246-.473.512-.742.734-.258.22-.504.458-.78.658a17.52 17.52 0 01-.902.595c-.352.214-.696.44-1.042.664-.382.251-.754.519-1.128.783-.35.23-.703.456-1.051.688a4.954 4.954 0 00-1.27 1.177 1.248 1.248 0 00-.243.435c-.025.112-.022.224-.02.339v.364c0 .135-.001.27.01.404.016.16.042.319.106.467.058.159.119.317.2.466.058.115.114.232.187.338.07.086.143.17.225.246.075.073.15.147.237.206.087.057.165.127.259.174.118.064.238.12.361.173.132.056.267.1.4.15.083.028.174.062.261.069.016 0 .06-.014.048-.003-.035.034-.083.052-.125.079.09-.075.108-.195.135-.304.052-.228.105-.456.164-.682.127-.551.227-1.108.305-1.667a77.19 77.19 0 00.2-1.689c.074-.606.154-1.212.209-1.82.06-.629.087-1.26.138-1.89.058-.544.135-1.085.232-1.624.085-.492.14-.988.216-1.481.062-.404.128-.808.193-1.212.042-.297.07-.595.117-.891l.021-.105c.006-.03-.003-.065.017-.087.232-.263.186-.189.176-.083a2.411 2.411 0 01-.047.29 3.227 3.227 0 01-.058.363c-.022.15-.061.294-.117.435-.053.153-.104.307-.151.462-.049.166-.118.323-.182.483a4.7 4.7 0 01-.271.597c-.116.233-.225.473-.378.685a5.327 5.327 0 01-.518.651c-.233.237-.47.469-.715.692-.312.26-.639.501-.992.702-.29.163-.59.306-.9.43-.295.113-.596.208-.9.292a6.783 6.783 0 01-.707.176c-.224.04-.45.076-.679.06-.12-.01-.251-.014-.35-.093-.055-.068-.036-.147-.016-.227.03-.102.065-.203.102-.303.067-.153.123-.308.173-.467.086-.21.178-.417.261-.628.097-.243.21-.478.326-.713.105-.23.211-.458.299-.695.085-.208.176-.414.247-.629.05-.153.091-.31.147-.462.028-.097-.041-.022.154-.138.053-.032-.105.09-.061.07-.046.058-.111.099-.165.149-.038.022-.068.052-.105.075a2.52 2.52 0 01-.281.157c-.09.038-.177.086-.274.105-.096.015-.192.035-.29.028h-.362c-.165 0-.33-.003-.495-.02a3.548 3.548 0 01-.647-.14 6.746 6.746 0 01-.69-.271 2.821 2.821 0 01-.533-.291c-.123-.084-.24-.178-.374-.243l-.036-.011c-.01-.003-.036.004-.029-.003.041-.034.09-.058.135-.086-.007.006-.015.011-.02.02-.014.02-.017.049-.022.071-.018.087-.016.173-.023.26-.01.088-.03.172-.06.255-.021.117-.062.23-.079.347-.01.138-.027.274-.065.407-.043.163-.074.328-.108.493-.017.112-.032.225-.066.334-.03.084-.064.167-.084.255-.022.08-.024.165-.068.238-.04.076-.067.16-.122.227-.05.062-.084.136-.14.193-.046.052-.081.11-.136.154-.053.042-.104.09-.148.14-.047.073-.116.125-.173.19-.07.062-.129.133-.199.195-.065.072-.135.138-.189.22a4.39 4.39 0 01-.26.34l-.173.073z" id="path4557" style="fill:none;fill-opacity:1;stroke:url(#linearGradient4601);stroke-width:1.5;stroke-miterlimit:4;stroke-dasharray:none"/>
      <path d="M188.207 279.293c-.189-.127-.354-.285-.52-.44a2.77 2.77 0 01-.374-.399 1.02 1.02 0 01-.185-.38.806.806 0 01-.023-.445c.067-.242.242-.423.425-.585.358-.296.783-.479 1.215-.635a7.16 7.16 0 011.65-.277 4.13 4.13 0 011.163.103c.277.08.53.227.767.388.156.112.277.258.373.422.08.14.116.291.136.45a.899.899 0 01-.07.488c-.073.179-.206.317-.332.459-.126.13-.28.223-.432.318a9.596 9.596 0 01-.556.307c-.102.04-.2.09-.302.126-.084.023-.17.039-.249.075-.095.043-.194.07-.297.088-.072.02-.146.034-.22.046l.15-.112c.073-.012.146-.028.22-.046.101-.02.2-.05.294-.092.08-.031.166-.05.249-.074.102-.038.2-.085.3-.127.086-.044.17-.09.253-.135.024-.013.094-.056.072-.04-.026.021-.058.035-.087.051.152-.094.307-.187.434-.314.125-.14.261-.275.335-.453a.846.846 0 00.074-.48 1.173 1.173 0 00-.132-.442 1.334 1.334 0 00-.368-.416c-.235-.16-.485-.306-.761-.383a4.142 4.142 0 00-1.158-.101 6.94 6.94 0 00-1.647.281c-.32.117-.643.23-.905.457-.182.158-.358.335-.427.573a.764.764 0 00.019.436.997.997 0 00.182.374c.109.145.235.277.37.397.166.155.33.314.522.437l-.158.1z" id="path4559" style="fill:#4d4d4d;stroke:url(#linearGradient4609);stroke-width:1.5;stroke-miterlimit:4;stroke-dasharray:none"/>
      <text transform="scale(.83096 1.20342)" id="text4617" y="243.287" x="206.765" style="font-style:normal;font-weight:400;font-size:1.1725806px;line-height:1.25;font-family:sans-serif;letter-spacing:0;word-spacing:0;fill:#000;fill-opacity:1;stroke:none;stroke-width:.21985883" xml:space="preserve">
        <tspan style="font-style:normal;font-variant:normal;font-weight:400;font-stretch:normal;font-family:'Copperplate Gothic Bold';-inkscape-font-specification:'Copperplate Gothic Bold, ';stroke-width:.21985883" y="243.287" x="206.765" id="tspan4615">Roald Jurrian Kamman</tspan>
      </text>
    </g>
    <g id="g6802">
      <path d="M254 136.36c1.857 2.824-2.89 3.897-4.693 3.087-4.887-2.195-4.356-8.924-1.48-12.473 5.142-6.349 14.857-5.21 20.253.126 7.918 7.831 6.109 20.878-1.733 28.033-10.451 9.536-26.931 7.028-35.813-3.339-11.177-13.045-7.957-33 4.945-43.593 15.626-12.831 39.076-8.892 51.373 6.551 14.493 18.2 9.831 45.158-8.158 59.154-20.768 16.158-51.243 10.772-66.933-9.765-17.827-23.334-11.715-57.331 11.37-74.713 25.9-19.5 63.423-12.66 82.494 12.977 21.173 28.462 13.605 69.514-14.583 90.273" id="path6651" style="fill:none;fill-rule:evenodd;stroke:url(#linearGradient6659);stroke-width:2.11666679;stroke-miterlimit:4;stroke-dasharray:none"/>
      <ellipse ry="64.634" rx="68.414" cy="137.116" cx="255.89" id="path6639" style="opacity:1;fill:#2eaf2e;fill-opacity:0;fill-rule:nonzero;stroke:url(#linearGradient6647);stroke-width:2.64583349;stroke-miterlimit:4;stroke-dasharray:none;stroke-opacity:1"/>
    </g>
    <g id="g5059">
      <rect ry="10.258" style="fill:url(#linearGradient6626);fill-opacity:1;stroke:#000;stroke-width:2;stroke-miterlimit:4;stroke-dasharray:none" y="127.032" x="220.952" height="20.517" width="69.258" id="rect16"/>
      <text transform="scale(.7296 1.3706)" id="text5054" y="103.503" x="312.795" style="font-style:normal;font-variant:normal;font-weight:400;font-stretch:normal;font-size:12.14897442px;line-height:1.25;font-family:'Franklin Gothic Heavy';-inkscape-font-specification:'Franklin Gothic Heavy, ';letter-spacing:0;word-spacing:0;fill:#000;fill-opacity:1;stroke:#000;stroke-width:1;stroke-miterlimit:4;stroke-dasharray:none;stroke-opacity:1" xml:space="preserve">
        <tspan style="fill:#fff;stroke:#000;stroke-width:1;stroke-miterlimit:4;stroke-dasharray:none;stroke-opacity:1" y="103.503" x="312.795" id="tspan5052">Enter Project</tspan>
      </text>
    </g>
    <text xml:space="preserve" style="font-style:normal;font-variant:normal;font-weight:400;font-stretch:normal;font-size:1.41111112px;line-height:1.25;font-family:'Franklin Gothic Heavy';-inkscape-font-specification:'Franklin Gothic Heavy, ';letter-spacing:0;word-spacing:0;fill:#000;fill-opacity:1;stroke:none;stroke-width:.26458335" x="318.602" y="72.995" id="text5063"/>
    <g id="g5145">
      <g id="g6798">
        <g id="g6930">
          <g transform="matrix(.06134 0 0 -.04596 308.588 100.072)" id="g2452">
            <g transform="translate(-300.09 -2357.1) scale(5.1753)" style="fill:#fff;stroke:#000" id="g2399">
              <g clip-path="url(#clipPath2564)" style="fill:#fff;stroke:#000" id="g2401">
                <path d="M137.86 534.92h2.1l10.081-22.441H72.818l7.02 22.441h2.1m9.24 0h37.442m.014-27.237H72.818v4.796h77.223v-4.796H128.56" style="fill:#fff;stroke:#000;stroke-width:.60000002;stroke-linecap:round;stroke-linejoin:round;stroke-miterlimit:10" id="path2403"/>
              </g>
            </g>
            <g clip-path="url(#clipPath2564)" transform="translate(-300.09 -2357.1) scale(5.1753)" style="stroke:#000" id="g3179">
              <path d="M134.54 523.67l2.19-5.67m13.321-5.52H72.828m11.1 16.86L80.388 518h61.082l-5.1 11.34zm-.9-2.82h54.602m-55.502-2.82h56.822m-57.662-2.82h58.922M85.068 518l2.88 11.34m8.101 0L94.488 518m5.581 11.34l-.675-8.505m4.695 8.505l-.18-8.505m4.2 8.505l.36-8.505m3.72 8.505l.81-8.505m3.21 8.505l1.305-8.505m2.716 8.505l1.845-8.505m2.175 8.505l3.12-11.34m4.98 11.34l1.095-2.835m-5.115 2.835l3.72-11.34m-40.082 11.34L89.748 518m-16.92-10.317v4.796h77.223v-4.796" style="fill:none;stroke:#000;stroke-width:.60000002;stroke-linecap:round;stroke-linejoin:round;stroke-miterlimit:10" id="path3181"/>
            </g>
            <g transform="translate(-300.09 -2357.1) scale(5.1753)" style="fill:#fff;stroke:#000" id="g3434">
              <g clip-path="url(#clipPath2564)" style="fill:#fff;stroke:#000" id="g3436">
                <path d="M137.86 535.46H79.845v42.542h60.122V535.46h-2.1" style="fill:#fff;stroke:#000;stroke-width:.60000002;stroke-linecap:round;stroke-linejoin:round;stroke-miterlimit:10" id="path3438"/>
              </g>
            </g>
            <g transform="translate(-300.09 -2357.1) scale(5.1753)" style="fill:#7f7f7f;stroke:#000" id="g3465">
              <g clip-path="url(#clipPath2564)" style="fill:#7f7f7f;stroke:#000" id="g3467">
                <path d="M85.303 574.28h49.502v-35.101H85.303z" style="fill:#7f7f7f;stroke:#000;stroke-width:.60000002;stroke-linecap:round;stroke-linejoin:round;stroke-miterlimit:10" id="path3469"/>
                <path d="M85.303 574.28h49.502v-35.101H85.303z" style="fill:#7f7f7f;stroke:#000;stroke-width:.60000002;stroke-linecap:round;stroke-linejoin:round;stroke-miterlimit:10" id="path3471"/>
              </g>
            </g>
            <path d="M141.38 433.26h256.19" style="fill:#e3e3e3;fill-rule:evenodd;stroke:#000;stroke-width:5.17530012" id="path2558"/>
            <g transform="translate(-300.09 -2357.1) scale(5.1753)" style="stroke:#000" id="g3459">
              <g clip-path="url(#clipPath2564)" style="stroke:#000" id="g3461">
                <path d="M137.86 536.18h-9.24v-1.98h9.24z" style="fill:none;stroke:#000;stroke-width:.60000002;stroke-linecap:round;stroke-linejoin:round;stroke-miterlimit:10" id="path3463"/>
              </g>
            </g>
            <g transform="translate(-300.09 -2357.1) scale(5.1753)" style="stroke:#000" id="g3453">
              <g clip-path="url(#clipPath2564)" style="stroke:#000" id="g3455">
                <path d="M81.943 536.18h9.24v-1.98h-9.24z" style="fill:none;stroke:#000;stroke-width:.60000002;stroke-linecap:round;stroke-linejoin:round;stroke-miterlimit:10" id="path3457"/>
              </g>
            </g>
          </g>
          <g transform="matrix(.02054 0 0 .02259 182.124 72.846)" id="layer1-2">
            <g id="g3935">
              <g id="g3931" style="fill:none;stroke:#000">
                <path d="M63.592-327h722.38v983.61H63.592z" id="rect2816" style="stroke-width:21.71500015"/>
                <path d="M130.25-228.31h586.42zm0 69.295h586.42zm0 61.295h586.42zm0 69.35h586.42zm0 69.295h586.42zm0 61.295h586.42zm0 61.295h586.42zm0 69.295h586.42zm0 61.351h586.42zm0 69.295h586.42zm0 69.295h586.42zm0 61.295h586.42z" id="path3592" style="stroke-width:9.35709953"/>
              </g>
              <g transform="rotate(-8.541 689.131 -7408.817)" id="g3910" style="stroke-width:1.89300001px">
                <path d="M-1218-94.472c11.218 14.594 34.948 9.438 53.165 14.691 80.077 23.092 500.25 18.606 500.25 18.606l159.93-42.454-69.537-.104-2.392.023 70.5.136-101.39 26.928-.106-55.671 101.35 27.408 1.56-.03-160.11-43.249s-264.22-4.298-413.48 5.202l16.182-10.799 167.23-3.77-34.353-20.087-151.48 6.657-32.715 30.665c-22.38 2.109-40.39 4.695-51.565 7.858-18.256 5.167-42.157-.248-53.25 14.388-4.741 6.254-4.603 17.348.203 23.6z" id="path3897" style="stroke:#000"/>
                <path d="M-673.21-66.201l-.191-78.596 8.598.034.148 78.587zm-248.66-.686l-.166-78.613 12.854.042.192 78.596z" id="path3630" style="fill:#fff;stroke:#fff"/>
              </g>
            </g>
          </g>
          <g id="g4881" transform="matrix(.02336 0 0 .01803 176.656 182.97)">
            <path id="path4873" d="M626.407 50.022c-7.193-.778-14.386-.539-21.585-.225-7.199-.314-14.392-.553-21.585.225C251.878 55.423 34.711 353.506 78.035 650.425c23.893 167.215 115.647 257.266 171.46 316.006 120.016 126.058 98.977 162.49 139.248 225.625-21.847 28.048-24.026 71.245-1.648 99.612-17.364 28.58-17.665 68.765 4.713 94.775-20.476 31.982-18.608 77.175 8.345 100.906-5.833 37.263 21.687 100.389 96.352 99.134 1.835 7.057 2.615 35.574 28.544 52.411 22.791 15.301 33.22 8.487 120.829 10.596 13.537.213 27.393-2.995 38.715-10.596 25.906-16.821 26.712-45.365 28.544-52.411 69.851 1.174 102.81-57.885 96.352-99.134 27.183-23.933 28.625-69.231 8.345-100.906 22.378-26.01 22.077-66.196 4.713-94.775 22.378-28.367 20.199-71.564-1.648-99.612 18.569-29.111 27.339-62.953 42.134-93.907 40.361-89.323 118.845-144.285 175.146-219.92 240.719-326.123 19.831-821.172-411.772-828.207z"/>
            <g id="g4879">
              <path id="path4875" d="M524.2 322.601c48.714 52.887 44.272 124.135-12.19 172.027 46.6 39.059 62.963 107.336 29.43 160.439-21.599-8.771-47.219-9.905-68.41.62-15.397-10.737-34.816-15.521-53.314-11.269-14.058-51.802-57.926-76.267-110.562-64.442 0-12.952-2.87-25.904-9.444-37.155 20.766-1.914 41.142-10.418 55.99-25.249 21.952 26.53 58.082 34.106 89.726 13.891 8.221 17.169 22.396 31.539 40.132 38.803 2.906-7.194 5.723-14.405 8.717-21.545-36.456-15.635-47.837-72.308-8.523-99.453-4.43-6.414-8.806-12.863-13.236-19.26-24.93 16.638-38.218 47.839-33.984 77.394-24.695 20.091-53.098 13.835-68.269-9.143 7.335-14.263 9.798-31.113 5.262-46.617 33.944-20.88 37.112-62.047 22.485-93.251 47.074-1.22 78.651-30.766 80.175-77.022 22.378-7.016 40.061-26.241 45.111-49.168-7.389-1.931-14.813-3.703-22.307-5.191-9.078 40.401-58.74 44.695-86.395 13.129-5.971 5.014-11.747 10.223-17.488 15.468 14.635 16.726 35.472 28.19 57.903 29.271-12.072 102.836-178.404 29.849-144.847-52.677 9.459-25.101 38.855-44.549 72.096-30.794C493.056 37.494 609.684 207.751 524.2 322.601zm-237.992-42.985c15.991 41.547 43.497 61.444 79.91 74.452 32.534 25.859 18.474 85.043-26.028 83.081 25.214 28.823 16.994 54.331-9.639 70.395-57.774 33.943-73.298-18.663-141.941 17.311-43.266-51.995 2.963-129.5 66.887-128.263-33.555-35.756-34.619-110.412 30.811-116.976zM278.695 614.9c56.62-24.962 104.915-20.123 119.634 39.707-17.346 12.793-26.79 34.834-23.867 56.22-62.888 42.087-43.474 132.334 37.988 140.542 4.057 29.944 26.453 54.98 54.253 65.629 3.154-7.087 5.599-14.44 8.434-21.634-50.724-20.729-57.526-88.132 2.959-104.308-1.719-7.53-3.366-15.078-5.05-22.609-29.82 6.607-52.852 26.297-60.313 59.48-64.036-8.064-70.705-74.236-11.535-105.141-14.002-59.62 33.091-71.614 70.324-36.783 66.736-56.035 146.207 56.851 67.755 140.435 92.475 100.044-11.622 222.972-100.392 132.267-67.741 27.295-108.964-11.979-99.843-80.902-70.81 20.231-114.179-35.714-93.305-105.424-66.112-20.811-90.579-79.246-87.564-143.235 9.068-132.06 166.627-117.98 120.522-14.244z" class="st0" style="fill:#fff"/>
              <path id="path4877" d="M827.386 201.408c33.147-13.716 62.603 5.603 72.096 30.794 33.577 82.577-132.791 155.377-144.847 52.677 22.431-1.081 43.268-12.545 57.903-29.271-5.741-5.245-11.517-10.454-17.488-15.468-27.647 31.557-77.315 27.28-86.395-13.129-7.495 1.488-14.919 3.26-22.307 5.191 5.05 22.928 22.733 42.152 45.111 49.168 1.524 46.257 33.105 75.801 80.175 77.022-14.488 30.908-11.75 72.193 22.485 93.251-4.536 15.504-2.073 32.354 5.262 46.617-15.126 22.91-43.508 29.288-68.269 9.143 4.235-29.554-9.054-60.756-33.984-77.394-4.43 6.396-8.806 12.846-13.236 19.26 39.299 27.134 27.947 83.812-8.523 99.453 2.994 7.141 5.812 14.352 8.717 21.545 17.736-7.265 31.911-21.634 40.132-38.803 31.218 19.942 67.449 13.031 89.726-13.891 14.848 14.83 35.224 23.335 55.99 25.249-6.573 11.251-9.444 24.203-9.444 37.155-52.583-11.813-96.491 12.589-110.562 64.442-18.498-4.252-37.917.532-53.314 11.269-21.191-10.525-46.812-9.391-68.41-.62-33.571-53.164-17.113-121.428 29.43-160.439-56.477-47.905-60.891-119.154-12.19-172.027-75.922-102.004 5.287-223.719 84.02-180.337 24.594 13.624 42.437 36.233 57.922 59.143zM954.25 396.593c63.903-1.237 110.171 76.246 66.887 128.263-15.694-8.225-37.67-20.541-78.882-8.363-46.737 13.978-119.009-26.402-72.698-79.343-44.501 1.961-58.568-57.218-26.028-83.081 35.043-12.519 63.386-31.523 79.91-74.452 64.775 6.497 64.734 80.825 30.811 116.976zm9.656 375.788c20.839 69.591-22.337 125.7-93.305 105.424 9.123 68.938-32.481 108.044-99.843 80.902-89.352 91.299-192.353-32.78-100.392-132.267-78.548-83.687.915-196.557 67.755-140.435 36.775-34.403 84.439-23.315 70.324 36.783 58.943 30.786 52.747 97.046-11.535 105.141-7.412-32.964-30.243-52.818-60.313-59.48-1.683 7.53-3.331 15.078-5.05 22.609 60.391 16.15 53.744 83.554 2.959 104.308 2.835 7.194 5.28 14.547 8.434 21.634 27.8-10.649 50.196-35.685 54.253-65.629 81.536-8.215 100.853-98.471 37.988-140.542 2.924-21.386-6.52-43.428-23.867-56.22 14.762-60.007 63.078-64.641 119.634-39.707-37.249-83.81 51.987-98.654 90.062-61.323 48.087 46.071 48.526 185.552-57.104 218.802z" class="st0" style="fill:#fff"/>
            </g>
          </g>
          <g transform="matrix(.05617 0 0 -.04634 309.936 212.839)" id="g18433">
            <g id="g18435">
              <g clip-path="url(#clipPath18441)" id="g18437">
                <path id="path18443" style="fill:#231f20;fill-opacity:1;fill-rule:nonzero;stroke:none" d="M259.891 181.099l-.006-3.235 71.636-.119.006 3.234-6.271 14.175-58.732.099z"/>
                <path id="path18445" style="fill:#231f20;fill-opacity:1;fill-rule:nonzero;stroke:none" d="M268.927 200.376l54.058-.09-7.704 17.412-38.206.063z"/>
                <path id="path18447" style="fill:#231f20;fill-opacity:1;fill-rule:nonzero;stroke:none" d="M331.226-.979l.289 173.769-71.638.118-.289-173.887z"/>
                <path id="path18449" style="fill:#231f20;fill-opacity:1;fill-rule:nonzero;stroke:none" d="M287.624 240.271l-8.147-17.385 33.535-.056-7.705 17.411z"/>
                <path id="path18451" style="fill:#231f20;fill-opacity:1;fill-rule:nonzero;stroke:none" d="M296.714 259.663l-6.687-14.267 13.01-.022z"/>
                <path id="path18453" style="fill:#231f20;fill-opacity:1;fill-rule:nonzero;stroke:none" d="M194.274 585.322l.271-4.719c1.134-2.33 4.432-4.749 15.667-9.317a1972.112 1972.112 0 01-20.773 6.454c-15.188 4.613-26.457 7.759-34.452 9.619-8.793 2.046-17.884 4.161-20.219-2.254l.283-4.829c1.428-2.927 2.903-5.954 49.064-22.058 26.468-9.234 61.818-20.739 96.004-31.866 27.879-9.074 58.972-19.194 84.739-27.99-27.206 7.812-60.066 17.798-89.472 26.734-36.429 11.071-74.099 22.519-102.157 30.336-15.189 4.232-26.459 7.099-34.454 8.766-10.751 2.242-17.957 3.274-20.09-2.586l.287-4.852c1.451-2.976 2.952-6.052 49.594-22.312 26.756-9.327 62.485-20.934 97.037-32.158 26.946-8.754 56.849-18.47 82.192-27.07-22.426 6.503-47.911 14.199-71.028 21.181-32.946 9.95-67.013 20.239-92.391 27.262-13.746 3.804-23.948 6.381-31.189 7.879-8.128 1.68-16.534 3.418-18.76-2.696l.28-4.787c.882-1.809 1.75-3.56 12.634-8.225-2.14-.453-3.799-1.609-4.644-3.929l.276-4.749c1.186-2.434 2.355-4.76 29.695-14.723-7.043 1.615-14.186 3.1-16.299-2.704l.27-4.706c1.328-2.724 2.474-5.076 38.918-17.794 20.637-7.201 48.192-16.174 74.839-24.852 5.098-1.66 10.424-3.395 15.854-5.168l-2.081.602c-24.311 7.026-49.449 14.293-68.186 19.238-10.171 2.685-17.727 4.498-23.099 5.543-6.268 1.219-13.372 2.601-15.42-3.025l.265-4.66c2.364-4.847 12.354-9.13 98.539-37.151 10.757-3.498 22.668-7.37 34.285-11.209-7.205 1.786-14.438 3.596-21.332 5.321-20.769 5.199-42.246 10.574-58.257 14.189-8.705 1.964-15.174 3.273-19.779 3.999-5.604.883-11.957 1.885-13.88-3.398l.258-4.594c1.135-2.328 3.737-4.333 16.482-9.145-4.209.666-8.43.559-9.973-3.68l.252-4.551c2.037-4.186 8.328-6.96 74.744-28.673-12.144 2.971-23.923 5.81-33.306 7.886-6.816 1.509-11.887 2.512-15.505 3.068-4.345.667-10.295 1.58-12.129-3.46l.247-4.504c1.785-3.666 4.458-5.267 63.6-24.583 6.448-2.107 13.561-4.43 20.548-6.744-2.77.41-5.491.816-8.073 1.202-12.277 1.833-24.972 3.728-34.452 4.922-14.18 1.785-20.049 2.525-21.955-2.712l.239-4.444c1.594-3.276 3.321-4.36 48.438-19.124 3.524-1.153 7.32-2.396 11.149-3.657l-1.392.129c-9.183.855-18.677 1.739-25.776 2.238-11.22.789-15.865 1.116-17.584-3.607a5.582 5.582 0 01-.327-1.9c0-.856.188-1.714.556-2.475 1.424-2.938 1.607-3.316 37.006-15.028 5.545-1.835 11.995-3.969 17.683-5.908-1.722-.367-3.431-.73-5.014-1.065l-14.875-3.235c-6.829-1.589-9.655-2.247-10.853-5.536a5.6 5.6 0 01.227-4.333c1.28-2.632 2.452-3.016 16.796-7.714 1.059-.347 2.251-.738 3.465-1.138-9.511-6.246-9.713-6.392-10.455-8.43a5.495 5.495 0 01.208-4.261c1.037-2.165 2.402-2.629 6.05-3.869l2.353-.82c-1.78.723-3.211 2.723-3.211 4.989 0 .61.103 1.238.331 1.866.634 1.75 2.115 2.985 3.88 3.418.643-.901 1.06-2.009 1.06-3.21 0-.615-.105-1.247-.336-1.88-.002 0-1.403-2.092-1.403-2.092.687.564 4.042 2.781 6.74 4.556.056-.099.138-.176.187-.279-.055.114-.124.177-.181.282.362.239.716.47 1.046.687 9.769 6.416 9.956 6.539 10.703 8.599a5.51 5.51 0 01.328 1.884c0 .842-.187 1.683-.557 2.443-1.158 2.381-2.261 2.931-13.081 6.493 1.325.282 2.63.56 3.858.819l14.882 3.238c6.831 1.589 9.658 2.247 10.856 5.537.22.602.328 1.251.328 1.9 0 .856-.188 1.714-.556 2.476-1.396 2.879-1.686 3.327-35.033 14.373 9.081-.846 18.438-1.716 25.453-2.209 11.221-.789 15.866-1.116 17.584 3.609l-.24 4.442c-1.593 3.276-3.319 4.36-48.434 19.123l-2.377.778c1.724-.256 3.425-.51 5.062-.755 12.278-1.833 24.974-3.728 34.453-4.922 14.182-1.786 20.052-2.525 21.958 2.713l-.248 4.504c-1.545 3.175-3.786 4.81-42.771 17.737 10.178-2.476 19.875-4.79 27.841-6.553 6.814-1.509 11.884-2.512 15.502-3.067 4.343-.667 10.293-1.58 12.127 3.459l-.252 4.55c-.696 1.43-1.893 2.695-5.8 4.604.213-.046.472-.109.677-.152 5.112-1.074 11.473-2.411 13.449 3.016l-.257 4.593c-2.179 4.472-9.681 7.723-84.268 32.021-4.36 1.42-8.862 2.888-13.402 4.371 4.986-1.242 9.935-2.48 14.715-3.677 20.77-5.198 42.247-10.574 58.26-14.188 8.705-1.965 15.174-3.274 19.78-4 5.604-.884 11.957-1.885 13.88 3.398l-.265 4.659c-2.219 4.552-11.168 8.607-83.568 32.272 19.864-5.728 39.396-11.304 54.67-15.336 10.172-2.685 17.728-4.498 23.101-5.543 6.269-1.219 13.374-2.601 15.421 3.025l-.269 4.706c-.913 1.872-1.741 3.568-13.99 8.571 1.15-.286 2.254-.555 3.264-.787 7.218-1.66 14.682-3.376 16.85 2.58l-.275 4.749c-.4.822-.817 1.635-2.213 2.727 4.252-.431 7.751.282 9.119 4.04l-.279 4.786c-1.403 2.878-2.729 5.597-44.508 20.165-23.839 8.312-55.669 18.659-86.451 28.665-17.696 5.752-36.832 11.974-54.714 17.917 19.312-5.68 40.078-11.95 59.223-17.732 32.945-9.951 67.013-20.239 92.391-27.263 13.746-3.804 23.948-6.38 31.188-7.878 8.129-1.681 16.534-3.419 18.76 2.696l-.286 4.853c-1.451 2.975-2.952 6.053-49.597 22.312-26.758 9.328-62.487 20.935-97.041 32.16-29.012 9.425-61.455 19.966-87.936 29.028 27.52-7.88 61.12-18.09 91.123-27.208 36.427-11.07 74.095-22.518 102.153-30.334 15.187-4.232 26.457-7.099 34.451-8.766 10.75-2.242 17.957-3.274 20.089 2.586l-.283 4.829c-1.38 2.83-2.812 5.756-44.631 20.503 2.122-.654 4.3-1.331 6.326-1.946 15.187-4.612 26.456-7.759 34.451-9.619 8.793-2.045 17.885-4.16 20.219 2.255l-.271 4.718c-2.701 5.549-17.504 11.558-123.363 46.13-19.547 6.384-40.963 13.379-60.139 19.832 19.998-5.422 42.009-11.624 61.179-17.025 30.238-8.52 61.506-17.331 84.802-23.312 12.625-3.242 21.997-5.425 28.651-6.673 7.614-1.429 15.486-2.905 17.629 2.984l-.258 4.6c-2.175 4.466-10.398 8.023-86.336 32.767l-5.765 1.879 10.309-2.71c22.072-5.81 44.894-11.818 61.908-15.875 9.243-2.205 16.112-3.68 20.999-4.511 5.846-.994 12.473-2.12 14.439 3.283l-.244 4.482c-1.485 3.054-3.405 4.516-38.415 16.153 8.208-1.908 15.985-3.678 22.483-5.054 17.864-3.782 23.611-4.712 25.64.864.22.602.327 1.251.327 1.902 0 .862-.189 1.726-.559 2.49-1.384 2.848-1.721 3.376-33.97 13.992l.563-.053c9.37-.866 19.06-1.763 26.304-2.268 11.39-.794 16.104-1.122 17.828 3.617a5.52 5.52 0 01-.203 4.25c-1.062 2.231-1.235 2.292-10.338 5.438-2.325.804-5.839 2.019-6.516 2.313 1.68-.73 3.015-2.667 3.048-4.846-7.642.465-19.568 1.567-29.109 2.45-9.37.867-19.06 1.763-26.304 2.268-11.389.794-16.104 1.123-17.828-3.617a5.575 5.575 0 01-.326-1.901c0-.861.188-1.726.56-2.489.295-.609.556-1.112 1.073-1.629-11.052 2.597-21.773 5.076-30.313 6.884-17.863 3.782-23.61 4.713-25.639-.864l.244-4.482c1.256-2.583 2.816-4.025 24.453-11.451-21.223 5.586-42.889 11.273-59.211 15.165-9.243 2.205-16.112 3.68-20.999 4.511-5.847.994-12.473 2.121-14.44-3.282l.258-4.6c2.177-4.467 10.398-8.024 86.336-32.767l.045-.015a10577.905 10577.905 0 00-38.142 10.695c-30.238 8.52-61.505 17.329-84.799 23.311-12.625 3.242-21.996 5.425-28.65 6.673-7.613 1.428-15.486 2.905-17.63-2.984"/>
              </g>
            </g>
          </g>
          <text transform="scale(1.01805 .98227)" id="text5067" y="73.951" x="311.864" style="font-style:normal;font-variant:normal;font-weight:400;font-stretch:normal;font-size:.80750227px;line-height:1.25;font-family:'Franklin Gothic Heavy';-inkscape-font-specification:'Franklin Gothic Heavy, ';letter-spacing:0;word-spacing:0;fill:#2eaf2e;fill-opacity:1;stroke:none;stroke-width:.15140668" xml:space="preserve">
            <tspan style="fill:#2eaf2e;fill-opacity:1;stroke-width:.15140668" y="73.951" x="311.864" id="tspan5065">$(&apos;button&apos;).onclick() =&gt; {</tspan>
          </text>
          <text transform="scale(.83268 1.20093)" id="text5071" y="61.39" x="382.553" style="font-style:normal;font-variant:normal;font-weight:400;font-stretch:normal;font-size:.86820889px;line-height:1.25;font-family:'Franklin Gothic Heavy';-inkscape-font-specification:'Franklin Gothic Heavy, ';letter-spacing:0;word-spacing:0;fill:#2eaf2e;fill-opacity:1;stroke:none;stroke-width:.16278915" xml:space="preserve">
            <tspan style="fill:#2eaf2e;fill-opacity:1;stroke-width:.16278915" y="61.39" x="382.553" id="tspan5069">$overlay.addclass(&apos;animate&apos;);</tspan>
          </text>
          <text transform="scale(.83937 1.19137)" id="text5075" y="62.748" x="378.319" style="font-style:normal;font-variant:normal;font-weight:400;font-stretch:normal;font-size:.87805605px;line-height:1.25;font-family:'Franklin Gothic Heavy';-inkscape-font-specification:'Franklin Gothic Heavy, ';letter-spacing:0;word-spacing:0;fill:#2eaf2e;fill-opacity:1;stroke:none;stroke-width:.16463551" xml:space="preserve">
            <tspan style="fill:#2eaf2e;fill-opacity:1;stroke-width:.16463551" y="62.748" x="378.319" id="tspan5073">}</tspan>
          </text>
          <text transform="scale(1.02007 .98032)" id="text5079" y="77.546" x="311.212" style="font-style:normal;font-variant:normal;font-weight:400;font-stretch:normal;font-size:.88267064px;line-height:1.25;font-family:'Franklin Gothic Heavy';-inkscape-font-specification:'Franklin Gothic Heavy, ';letter-spacing:0;word-spacing:0;fill:#2eaf2e;fill-opacity:1;stroke:none;stroke-width:.16550075" xml:space="preserve">
            <tspan style="fill:#2eaf2e;fill-opacity:1;stroke-width:.16550075" y="77.546" x="311.212" id="tspan5077">if (read === true) {</tspan>
          </text>
          <text transform="scale(1.0892 .9181)" id="text5085" y="83.967" x="291.512" style="font-style:normal;font-variant:normal;font-weight:400;font-stretch:normal;font-size:.84899151px;line-height:1.25;font-family:'Franklin Gothic Heavy';-inkscape-font-specification:'Franklin Gothic Heavy, ';letter-spacing:0;word-spacing:0;fill:#2eaf2e;fill-opacity:1;stroke:none;stroke-width:.1591859" xml:space="preserve">
            <tspan style="fill:#2eaf2e;fill-opacity:1;stroke-width:.1591859" y="83.967" x="291.512" id="tspan5083">$you = &apos;awesome&apos;;</tspan><tspan id="tspan5087" style="fill:#2eaf2e;fill-opacity:1;stroke-width:.1591859" y="85.028" x="291.512">}</tspan>
          </text>
        </g>
      </g>
    </g>
    <text xml:space="preserve" style="font-style:normal;font-variant:normal;font-weight:400;font-stretch:normal;font-size:5.64444447px;line-height:1.25;font-family:'Franklin Gothic Heavy';-inkscape-font-specification:'Franklin Gothic Heavy, ';letter-spacing:0;word-spacing:0;fill:#000;fill-opacity:1;stroke:none;stroke-width:.26458335" x="-15.497" y="91.003" id="text6934"/>
    <text xml:space="preserve" style="font-style:normal;font-variant:normal;font-weight:400;font-stretch:normal;font-size:7.05555582px;line-height:1.25;font-family:'Franklin Gothic Heavy';-inkscape-font-specification:'Franklin Gothic Heavy, ';letter-spacing:0;word-spacing:0;fill:#000;fill-opacity:1;stroke:none;stroke-width:.26458335" x="-13.985" y="89.113" id="text6938"/>
    <text xml:space="preserve" style="font-style:normal;font-variant:normal;font-weight:400;font-stretch:normal;font-size:7.05555534px;line-height:1.25;font-family:'Franklin Gothic Heavy';-inkscape-font-specification:'Franklin Gothic Heavy, ';letter-spacing:0;word-spacing:0;fill:#000;fill-opacity:1;stroke:none;stroke-width:.26458335" x="109.634" y="252.847" id="text6978"/>
  </g>
  <style id="style4871" type="text/css">
    .st0{fill:#fff}
  </style>
  <style id="style4923" type="text/css">
    .st0{fill:none}
  </style>
</svg>
